<?xml version="1.0" encoding="UTF-8" standalone="no"?>
<!-- Created with Inkscape (http://www.inkscape.org/) -->

<svg
   xmlns:dc="http://purl.org/dc/elements/1.1/"
   xmlns:cc="http://creativecommons.org/ns#"
   xmlns:rdf="http://www.w3.org/1999/02/22-rdf-syntax-ns#"
   xmlns:svg="http://www.w3.org/2000/svg"
   xmlns="http://www.w3.org/2000/svg"
   xmlns:sodipodi="http://sodipodi.sourceforge.net/DTD/sodipodi-0.dtd"
   xmlns:inkscape="http://www.inkscape.org/namespaces/inkscape"
   id="svg2"
   version="1.1"
   inkscape:version="0.48.4 r9939"
   width="625"
   height="625"
   xml:space="preserve"
   sodipodi:docname="445114-PF07XC-284.ai"><metadata
     id="metadata8"><rdf:RDF><cc:Work
         rdf:about=""><dc:format>image/svg+xml</dc:format><dc:type
           rdf:resource="http://purl.org/dc/dcmitype/StillImage" /><dc:title></dc:title></cc:Work></rdf:RDF></metadata><defs
     id="defs6"><clipPath
       clipPathUnits="userSpaceOnUse"
       id="clipPath18"><path
         d="M 0,500 500,500 500,0 0,0 0,500 z"
         id="path20" /></clipPath><clipPath
       clipPathUnits="userSpaceOnUse"
       id="clipPath30"><path
         d="m 121.059,417.811 207.649,0 0,-276.404 -207.649,0 0,276.404 z"
         id="path32" /></clipPath><clipPath
       clipPathUnits="userSpaceOnUse"
       id="clipPath286"><path
         d="M 0,500 500,500 500,0 0,0 0,500 z"
         id="path288" /></clipPath></defs><sodipodi:namedview
     pagecolor="#ffffff"
     bordercolor="#666666"
     borderopacity="1"
     objecttolerance="10"
     gridtolerance="10"
     guidetolerance="10"
     inkscape:pageopacity="0"
     inkscape:pageshadow="2"
     inkscape:window-width="1301"
     inkscape:window-height="744"
     id="namedview4"
     showgrid="false"
     inkscape:zoom="1.0680141"
     inkscape:cx="221.9615"
     inkscape:cy="232.82089"
     inkscape:window-x="65"
     inkscape:window-y="24"
     inkscape:window-maximized="1"
     inkscape:current-layer="g10" /><g
     id="g10"
     inkscape:groupmode="layer"
     inkscape:label="445114-PF07XC-284"
     transform="matrix(1.25,0,0,-1.25,0,625)"><g
       id="g14"><g
         id="g16"
         clip-path="url(#clipPath18)"><g
           id="g22"
           transform="translate(131.2603,419.2881)"><path
             d="m 0,0 0,-154.559 c 0,-0.968 0.517,-1.863 1.357,-2.347 l 202.232,-116.418 c 1.806,-1.039 4.06,0.263 4.06,2.346 l 0,153.959 c 0,0.967 -0.516,1.86 -1.353,2.344 L 4.064,2.344 C 2.259,3.388 0,2.085 0,0"
             style="fill:#9572e0;fill-opacity:1;fill-rule:nonzero;stroke:none"
             id="path24" /></g><g
           id="g26"><g
             id="g28" /><g
             id="g34"><g
               clip-path="url(#clipPath30)"
               opacity="0.770004"
               id="g36"><g
                 transform="translate(121.0591,415.1011)"
                 id="g38"><path
                   d="m 0,0 0,-154.562 c 0,-0.969 0.517,-1.863 1.356,-2.346 l 202.236,-116.421 c 1.804,-1.039 4.057,0.264 4.057,2.345 l 0,153.963 c 0,0.966 -0.516,1.858 -1.352,2.342 L 4.062,2.342 C 2.257,3.386 0,2.084 0,0"
                   style="fill:#ffffff;fill-opacity:1;fill-rule:nonzero;stroke:none"
                   id="path40" /></g></g></g></g><g
           id="g42"
           transform="translate(162.2295,235.2734)"><path
             d="M 0,0 0,160.697 -41.17,184.52 -41.17,23.7 0,0 z"
             style="fill:#4d308e;fill-opacity:1;fill-rule:nonzero;stroke:none"
             id="path44" /></g><g
           id="g46"
           transform="translate(175.4565,370.3101)"><path
             d="M 0,0 0,-7.464 C 0,-7.805 0.181,-8.12 0.476,-8.291 l 94.462,-54.951 c 0.638,-0.371 1.438,0.089 1.438,0.827 l 0,8.137 c 0,0.342 -0.183,0.658 -0.48,0.829 L 1.434,0.83 C 0.795,1.196 0,0.736 0,0"
             style="fill:#9271dd;fill-opacity:1;fill-rule:nonzero;stroke:none"
             id="path48" /></g><g
           id="g50"
           transform="translate(175.4565,355.9497)"><path
             d="M 0,0 0,-7.464 C 0,-7.805 0.181,-8.12 0.476,-8.291 l 94.462,-54.951 c 0.638,-0.371 1.438,0.089 1.438,0.827 l 0,8.137 c 0,0.342 -0.183,0.658 -0.48,0.829 L 1.434,0.83 C 0.795,1.196 0,0.736 0,0"
             style="fill:#9271dd;fill-opacity:1;fill-rule:nonzero;stroke:none"
             id="path52" /></g><g
           id="g54"
           transform="translate(175.4565,341.7036)"><path
             d="M 0,0 0,-7.464 C 0,-7.805 0.181,-8.12 0.476,-8.292 l 68.761,-40 c 0.638,-0.37 1.437,0.089 1.438,0.826 l 0.009,7.949 c 0.001,0.343 -0.183,0.66 -0.48,0.83 L 1.433,0.83 C 0.795,1.196 0,0.735 0,0"
             style="fill:#9271dd;fill-opacity:1;fill-rule:nonzero;stroke:none"
             id="path56" /></g><g
           id="g58"
           transform="translate(245.4585,281.4492)"><path
             d="M 0,0 0,-6.155 C 0,-6.698 0.289,-7.2 0.758,-7.474 L 25.81,-22.046 c 1.017,-0.592 2.292,0.142 2.292,1.318 l 0,6.333 c 0,0.546 -0.292,1.051 -0.766,1.323 L 2.285,1.323 C 1.268,1.907 0,1.173 0,0"
             style="fill:#9271dd;fill-opacity:1;fill-rule:nonzero;stroke:none"
             id="path60" /></g><g
           id="g62"
           transform="translate(245.4585,266.856)"><path
             d="M 0,0 0,-6.155 C 0,-6.698 0.289,-7.2 0.758,-7.474 L 25.81,-22.046 c 1.017,-0.592 2.292,0.141 2.292,1.318 l 0,6.333 c 0,0.546 -0.292,1.051 -0.766,1.323 L 2.285,1.323 C 1.268,1.907 0,1.173 0,0"
             style="fill:#9271dd;fill-opacity:1;fill-rule:nonzero;stroke:none"
             id="path64" /></g><g
           id="g66"
           transform="translate(175.4565,276.502)"><path
             d="M 0,0 0,-7.464 C 0,-7.805 0.181,-8.12 0.476,-8.292 l 68.761,-40 c 0.638,-0.37 1.437,0.089 1.438,0.826 l 0.009,7.949 c 0.001,0.343 -0.183,0.66 -0.48,0.83 L 1.433,0.83 C 0.795,1.196 0,0.735 0,0"
             style="fill:#9271dd;fill-opacity:1;fill-rule:nonzero;stroke:none"
             id="path68" /></g><g
           id="g70"
           transform="translate(175.4565,259.5996)"><path
             d="M 0,0 0,-7.464 C 0,-7.805 0.181,-8.12 0.476,-8.292 l 68.761,-39.999 c 0.638,-0.371 1.437,0.088 1.438,0.825 l 0.009,7.949 c 0.001,0.343 -0.183,0.66 -0.48,0.83 L 1.433,0.83 C 0.795,1.196 0,0.736 0,0"
             style="fill:#9271dd;fill-opacity:1;fill-rule:nonzero;stroke:none"
             id="path72" /></g><g
           id="g74"
           transform="translate(176.5142,321.001)"><path
             d="m 0,0 0,-27.891 c 0,-0.61 0.326,-1.173 0.855,-1.477 l 24.323,-13.945 c 1.135,-0.651 2.55,0.169 2.55,1.477 l 0,27.513 c 0,0.603 -0.319,1.161 -0.839,1.467 L 2.566,1.467 C 1.432,2.135 0,1.317 0,0"
             style="fill:#9271dd;fill-opacity:1;fill-rule:nonzero;stroke:none"
             id="path76" /></g><g
           id="g78"
           transform="translate(209.0171,302.2402)"><path
             d="m 0,0 0,-27.891 c 0,-0.61 0.326,-1.173 0.855,-1.477 l 24.323,-13.945 c 1.135,-0.65 2.55,0.169 2.55,1.477 l 0,27.513 c 0,0.603 -0.319,1.161 -0.839,1.467 L 2.566,1.467 C 1.432,2.136 0,1.317 0,0"
             style="fill:#9271dd;fill-opacity:1;fill-rule:nonzero;stroke:none"
             id="path80" /></g><g
           id="g82"
           transform="translate(287.1162,305.3667)"><path
             d="m 0,0 0,-27.891 c 0,-0.61 0.326,-1.173 0.855,-1.477 l 24.324,-13.945 c 1.134,-0.651 2.549,0.169 2.549,1.477 l 0,27.513 c 0,0.603 -0.32,1.161 -0.839,1.467 L 2.566,1.467 C 1.432,2.135 0,1.317 0,0"
             style="fill:#9271dd;fill-opacity:1;fill-rule:nonzero;stroke:none"
             id="path84" /></g><g
           id="g86"
           transform="translate(127.771,361.1431)"><path
             d="M 0,0 0,-4.686 C 0,-5.02 0.176,-5.329 0.463,-5.499 l 21.912,-13.002 c 0.631,-0.374 1.43,0.082 1.428,0.815 l -0.011,4.835 c -0.001,0.335 -0.179,0.644 -0.467,0.813 L 1.424,0.815 C 0.794,1.185 0,0.73 0,0"
             style="fill:#ffc8aa;fill-opacity:1;fill-rule:nonzero;stroke:none"
             id="path88" /></g><g
           id="g90"
           transform="translate(127.771,350.5796)"><path
             d="M 0,0 0,-4.686 C 0,-5.02 0.176,-5.328 0.463,-5.499 L 22.375,-18.5 c 0.631,-0.375 1.43,0.081 1.428,0.814 l -0.011,4.836 c -0.001,0.334 -0.179,0.643 -0.467,0.813 L 1.424,0.815 C 0.794,1.186 0,0.731 0,0"
             style="fill:#ffc8aa;fill-opacity:1;fill-rule:nonzero;stroke:none"
             id="path92" /></g><g
           id="g94"
           transform="translate(127.771,340.1865)"><path
             d="M 0,0 0,-4.686 C 0,-5.02 0.176,-5.329 0.463,-5.499 l 21.912,-13.002 c 0.631,-0.374 1.43,0.082 1.428,0.815 l -0.011,4.835 c -0.001,0.335 -0.179,0.644 -0.467,0.814 L 1.424,0.815 C 0.794,1.185 0,0.731 0,0"
             style="fill:#ffc8aa;fill-opacity:1;fill-rule:nonzero;stroke:none"
             id="path96" /></g><g
           id="g98"
           transform="translate(149.6865,383.9141)"><path
             d="m 0,0 c 0.888,-8.055 -2.875,-15.078 -8.404,-15.688 -5.53,-0.61 -10.732,5.426 -11.62,13.48 -0.888,8.055 2.875,15.079 8.404,15.688 C -6.091,14.09 -0.888,8.055 0,0"
             style="fill:#ffc8aa;fill-opacity:1;fill-rule:nonzero;stroke:none"
             id="path100" /></g><g
           id="g102"
           transform="translate(246.1411,129.6123)"><path
             d="m 0,0 13.864,-8.164 0,96.276 L 0,96.431 0,0 z"
             style="fill:#ffc8aa;fill-opacity:1;fill-rule:nonzero;stroke:none"
             id="path104" /></g><g
           id="g106"
           transform="translate(273.5605,129.6123)"><path
             d="m 0,0 -13.556,-8.164 0,96.276 L 0,96.431 0,0 z"
             style="fill:#fdb296;fill-opacity:1;fill-rule:nonzero;stroke:none"
             id="path108" /></g><g
           id="g110"
           transform="translate(260.0049,233.7451)"><path
             d="M 0,0 -13.864,-7.702 0,-16.021 13.556,-7.702 0,0 z"
             style="fill:#ffffff;fill-opacity:1;fill-rule:nonzero;stroke:none"
             id="path112" /></g><g
           id="g114"
           transform="translate(273.5605,113.5918)"><path
             d="m 0,0 0,80.103 14.48,-8.319 0,-80.101 L 0,0 z"
             style="fill:#ffc8aa;fill-opacity:1;fill-rule:nonzero;stroke:none"
             id="path116" /></g><g
           id="g118"
           transform="translate(300.9805,193.6943)"><path
             d="m 0,0 -12.939,-8.318 0,-80.102 L 0,-80.719 0,0 z"
             style="fill:#fdb296;fill-opacity:1;fill-rule:nonzero;stroke:none"
             id="path120" /></g><g
           id="g122"
           transform="translate(288.041,202.3203)"><path
             d="M 0,0 -14.48,-8.626 0,-16.944 12.939,-8.626 0,0 z"
             style="fill:#ffffff;fill-opacity:1;fill-rule:nonzero;stroke:none"
             id="path124" /></g><g
           id="g126"
           transform="translate(367.9668,118.4492)"><path
             d="m 0,0 c -1.136,-2.361 -7.044,-1.878 -13.197,1.081 -6.153,2.959 -10.22,7.273 -9.084,9.634 1.136,2.362 7.045,1.879 13.198,-1.08 C -2.931,6.676 1.137,2.362 0,0"
             style="fill:#bdb0d9;fill-opacity:1;fill-rule:nonzero;stroke:none"
             id="path128" /></g><g
           id="g130"
           transform="translate(372.749,108.6982)"><path
             d="M 0,0 C -0.509,-1.059 -3.156,-0.842 -5.913,0.483 -8.67,1.81 -10.492,3.742 -9.983,4.801 -9.475,5.859 -6.827,5.643 -4.07,4.316 -1.312,2.991 0.51,1.058 0,0"
             style="fill:#bdb0d9;fill-opacity:1;fill-rule:nonzero;stroke:none"
             id="path132" /></g><g
           id="g134"
           transform="translate(386.3301,113.0869)"><path
             d="M 0,0 C -0.346,-0.719 -2.145,-0.571 -4.019,0.329 -5.892,1.23 -7.13,2.544 -6.784,3.263 -6.438,3.982 -4.64,3.835 -2.766,2.934 -0.893,2.033 0.346,0.72 0,0"
             style="fill:#bdb0d9;fill-opacity:1;fill-rule:nonzero;stroke:none"
             id="path136" /></g><g
           id="g138"
           transform="translate(408.8594,94.5166)"><path
             d="m 0,0 c -1.136,-2.362 -7.045,-1.879 -13.197,1.08 -6.154,2.959 -10.22,7.273 -9.084,9.635 1.135,2.361 7.044,1.878 13.197,-1.081 C -2.932,6.675 1.136,2.361 0,0"
             style="fill:#bdb0d9;fill-opacity:1;fill-rule:nonzero;stroke:none"
             id="path140" /></g><g
           id="g142"
           transform="translate(357.3486,259.2817)"><path
             d="m 0,0 c 0,0 -3.463,-0.308 -4.263,-16.329 -0.799,-16.02 -6.926,-19.716 -6.926,-24.955 0,-5.237 5.062,-8.933 2.398,-15.403 -2.664,-6.47 -5.022,-11.071 -5.062,-20.334 -0.063,-14.479 12.94,-29.268 12.94,-29.268 0,0 18.762,10.166 17.164,31.117 -2.931,13.555 0,15.404 -1.332,22.336 -1.332,6.931 -8.259,0.461 -6.927,19.871 C 9.324,-13.555 6.927,1.849 0,0"
             style="fill:#4d308e;fill-opacity:1;fill-rule:nonzero;stroke:none"
             id="path144" /></g><g
           id="g146"
           transform="translate(356.4355,124.0332)"><path
             d="M 0,0 0,65.621"
             style="fill:none;stroke:#ffffff;stroke-opacity:1;stroke-width:0.924;stroke-linecap:round;stroke-linejoin:round;stroke-miterlimit:10;stroke-dasharray:none"
             id="path148" /></g><g
           id="g150"
           transform="translate(398.6318,235.123)"><path
             d="m 0,0 c 0,0 -3.463,-0.309 -4.263,-16.329 -0.799,-16.021 -6.925,-19.717 -6.925,-24.955 0,-5.237 5.061,-8.934 2.397,-15.404 -2.664,-6.47 -5.022,-11.071 -5.062,-20.333 -0.063,-14.48 12.94,-29.268 12.94,-29.268 0,0 18.762,10.166 17.164,31.116 -2.931,13.556 0,15.404 -1.332,22.336 -1.332,6.932 -8.259,0.462 -6.927,19.871 C 9.324,-13.557 6.927,1.848 0,0"
             style="fill:#4d308e;fill-opacity:1;fill-rule:nonzero;stroke:none"
             id="path152" /></g><g
           id="g154"
           transform="translate(397.7187,99.874)"><path
             d="M 0,0 0,65.621"
             style="fill:none;stroke:#ffffff;stroke-opacity:1;stroke-width:0.924;stroke-linecap:round;stroke-linejoin:round;stroke-miterlimit:10;stroke-dasharray:none"
             id="path156" /></g><g
           id="g158"
           transform="translate(215.6177,162.7539)"><path
             d="m 0,0 c 0,0 -1.216,35.248 -8.914,55.505 -4.5,11.845 -13.159,23.26 -23.216,28.117 l -0.01,0.013 -0.007,-0.005 c -7.14,3.442 -14.982,3.585 -22.548,-1.794 -18.232,-12.961 -17.826,-20.658 -30.791,-17.417 -12.965,3.241 -18.637,7.292 -23.904,-1.621 L -8.917,5.119 -4.233,-4.232 0,0 z"
             style="fill:#bdb0d9;fill-opacity:1;fill-rule:nonzero;stroke:none"
             id="path160" /></g><g
           id="g162"
           transform="translate(101.9951,221.3193)"><path
             d="m 0,0 109.39,-62.798 c 0,0 -1.216,35.247 -8.913,55.505 C 92.778,12.965 72.926,31.999 54.695,19.038 36.463,6.077 36.868,-1.621 23.903,1.62 10.939,4.861 5.267,8.913 0,0"
             style="fill:#d8caee;fill-opacity:1;fill-rule:nonzero;stroke:none"
             id="path164" /></g><g
           id="g166"
           transform="translate(194.3691,136.542)"><path
             d="M 0,0 C 0,0 -1.215,35.248 -8.913,55.506 -13.414,67.35 -22.072,78.765 -32.13,83.622 l -0.01,0.014 -0.006,-0.006 c -7.14,3.442 -14.983,3.585 -22.549,-1.794 -18.231,-12.961 -17.826,-20.658 -30.791,-17.417 -12.965,3.241 -18.637,7.292 -23.904,-1.621 L -8.917,5.119 -4.233,-4.232 0,0 z"
             style="fill:#7964c3;fill-opacity:1;fill-rule:nonzero;stroke:none"
             id="path168" /></g><g
           id="g170"
           transform="translate(80.7466,195.1074)"><path
             d="m 0,0 109.39,-62.798 c 0,0 -1.216,35.248 -8.913,55.505 C 92.779,12.965 72.927,31.999 54.695,19.038 36.463,6.077 36.869,-1.621 23.904,1.62 10.939,4.861 5.267,8.913 0,0"
             style="fill:#9271dd;fill-opacity:1;fill-rule:nonzero;stroke:none"
             id="path172" /></g><g
           id="g174"
           transform="translate(115.9282,313.2139)"><path
             d="m 0,0 c 0,0 -2.158,-1.906 -1.021,-6.516 1.136,-4.611 6.152,-7.839 6.152,-7.839 L 5.101,2.862 C 5.101,2.862 4.265,0.292 0,0"
             style="fill:#ff70a5;fill-opacity:1;fill-rule:nonzero;stroke:none"
             id="path176" /></g><g
           id="g178"
           transform="translate(108.666,318.3398)"><path
             d="m 0,0 c 0,0 0.461,-1.614 2.19,-3.228 1.729,-1.613 4.726,-2.536 7.608,-1.383 2.882,1.153 4.265,4.841 2.306,8.646 -1.96,3.803 -4.381,4.38 -4.381,4.38 0,0 -1.037,-1.614 -4.841,-3.113 C -0.922,3.804 -0.986,1.861 0,0"
             style="fill:#ffc28e;fill-opacity:1;fill-rule:nonzero;stroke:none"
             id="path180" /></g><g
           id="g182"
           transform="translate(105.8994,322.9507)"><path
             d="m 0,0 c 0,0 -0.922,8.876 5.879,11.527 6.801,2.651 9.452,-4.611 4.611,-7.723 0,0 -0.807,-1.729 -4.842,-3.113 -4.034,-1.382 -3.33,-4.147 -3.33,-4.147 0,0 0.679,-2.192 2.639,-4.382 0,0 -8.645,2.997 -4.957,7.838"
             style="fill:#6344a9;fill-opacity:1;fill-rule:nonzero;stroke:none"
             id="path184" /></g><g
           id="g186"
           transform="translate(120.4038,310.2427)"><path
             d="M 0,0 C 0.013,-0.667 0.366,-0.664 -0.096,-1.701 -0.557,-2.738 -0.672,-4.583 0.942,-4.813 2.556,-5.043 4.977,-4.928 4.4,-3.314 3.824,-1.701 1.854,-2.049 1.28,-0.317 0.707,1.414 -0.009,0.46 0,0"
             style="fill:#ffcf94;fill-opacity:1;fill-rule:nonzero;stroke:none"
             id="path188" /></g><g
           id="g190"
           transform="translate(120.4038,316.1558)"><path
             d="M 0,0 C 0.013,0.667 0.366,0.664 -0.096,1.701 -0.557,2.738 -0.672,4.583 0.942,4.813 2.556,5.043 4.977,4.928 4.4,3.314 3.824,1.701 1.854,2.049 1.28,0.317 0.707,-1.414 -0.009,-0.46 0,0"
             style="fill:#ffcf94;fill-opacity:1;fill-rule:nonzero;stroke:none"
             id="path192" /></g><g
           id="g194"
           transform="translate(119.6548,182.7793)"><path
             d="m 0,0 c 0,0 -5.162,-3.209 -6.278,-11.301 -1.116,-8.091 0,-17.578 0,-17.578 0,0 14.369,-2.371 17.02,5.302 0,0 -1.116,5.999 -0.976,8.231 0,0 11.579,-2.092 13.95,7.673 l -2.092,2.232 c 0,0 -4.744,-9.487 -11.998,-2.651 0,0 -0.698,4.604 -3.767,5.58 0,0 -4.743,0.28 -5.859,2.512"
             style="fill:#ff70a5;fill-opacity:1;fill-rule:nonzero;stroke:none"
             id="path196" /></g><g
           id="g198"
           transform="translate(116.7251,142.1816)"><path
             d="m 0,0 c 0,0 -2.921,5.726 -3.349,11.719 0,0 13.254,-1.534 17.021,5.302 0,0 12.974,2.372 13.951,-1.396 0.976,-3.767 -0.977,-18.136 -0.977,-18.136 0,0 -4.743,-0.697 -6.278,0 l 0.558,11.579 c 0,0 -9.765,-2.092 -13.253,-2.65 0,0 3.906,-13.393 -4.883,-12.975 -8.789,0.419 -14.509,1.536 -14.509,1.536 l 0,4.044 C -11.719,-0.977 -1.814,0 0,0"
             style="fill:#6c46bb;fill-opacity:1;fill-rule:nonzero;stroke:none"
             id="path200" /></g><g
           id="g202"
           transform="translate(138.6978,136.8105)"><path
             d="M 0,0 0.243,2.558 3.633,2.731 3.418,0 0,0 z"
             style="fill:#ffcf94;fill-opacity:1;fill-rule:nonzero;stroke:none"
             id="path204" /></g><g
           id="g206"
           transform="translate(138.6978,134.5439)"><path
             d="m 0,0 c 0,0 -0.454,0.907 0,2.267 l 3.418,0 c 0,0 2.964,-1.011 4.29,-0.942 C 9.033,1.396 9.242,0.313 8.754,0 8.266,-0.313 0,0 0,0"
             style="fill:#ff5268;fill-opacity:1;fill-rule:nonzero;stroke:none"
             id="path208" /></g><g
           id="g210"
           transform="translate(105.0063,141.2051)"><path
             d="m 0,0 -2.825,0 c 0,0 -0.419,-3.057 0,-3.104 0.314,-0.035 2.825,0 2.825,0 L 0,0 z"
             style="fill:#ffcf94;fill-opacity:1;fill-rule:nonzero;stroke:none"
             id="path212" /></g><g
           id="g214"
           transform="translate(99.7397,141.2051)"><path
             d="m 0,0 c 0,0 0.104,-2.999 0.349,-4.359 0.244,-1.361 0.732,-2.198 1.29,-2.337 0.558,-0.14 2.686,0 2.686,0 0,0 0.418,0.678 -0.767,1.106 -1.186,0.429 -1.117,2.486 -1.117,2.486 L 2.441,0 C 2.441,0 1.395,0.698 0,0"
             style="fill:#ff5268;fill-opacity:1;fill-rule:nonzero;stroke:none"
             id="path216" /></g><g
           id="g218"
           transform="translate(119.1875,193.4844)"><path
             d="M 0,0 C 0,0 -0.559,3.62 2.572,3.879 5.704,4.138 10.4,4.138 11.63,5.703 12.86,7.27 16.19,3.492 13.127,-0.658 L 4.585,-10.705 0.467,-8.432 c 0,0 -3.262,6.755 -0.467,8.432"
             style="fill:#6344a9;fill-opacity:1;fill-rule:nonzero;stroke:none"
             id="path220" /></g><g
           id="g222"
           transform="translate(119.6548,182.7793)"><path
             d="m 0,0 0,2.273 c 0,0 3.967,-2.91 5.159,0 1.002,2.446 0,2.394 0,2.394 0,0 -1.6,0.671 -1.265,2.124 0.335,1.454 1.206,1.164 2.349,0.783 1.006,-0.336 3.339,-0.196 4.904,1.034 1.566,1.231 1.513,1.439 1.513,1.439 0,0 1.26,-3.172 -0.354,-6.946 -2.151,-5.032 -6.511,-3.914 -6.511,-3.914 l 0.064,-1.699 c 0,0 -4.274,0.306 -5.859,2.512"
             style="fill:#ffcf94;fill-opacity:1;fill-rule:nonzero;stroke:none"
             id="path224" /></g><g
           id="g226"
           transform="translate(115.3687,177.7607)"><path
             d="m 0,0 c 0,0 -4.232,-5.216 -6.162,-10.164 -1.929,-4.949 3.674,-5.871 3.674,-5.871 0,0 -0.325,10.516 2.488,16.035"
             style="fill:#ff649d;fill-opacity:1;fill-rule:nonzero;stroke:none"
             id="path228" /></g><g
           id="g230"
           transform="translate(141.2783,177.3379)"><path
             d="m 0,0 c 0,0 0.129,3.259 0.593,4.097 0.465,0.839 3.065,2.432 3.4,2.18 C 4.329,6.026 2.819,4.852 2.819,4.852 c 0,0 1.929,-0.631 1.762,-1.7 C 4.413,2.084 3.866,2.252 3.343,1.078 2.819,-0.097 2.093,-2.231 2.093,-2.231 L 0,0 z"
             style="fill:#ffcf94;fill-opacity:1;fill-rule:nonzero;stroke:none"
             id="path232" /></g><g
           id="g234"
           transform="translate(229.2344,80.79)"><path
             d="m 0,0 c 0.793,-2.294 1.837,-5.076 2.789,-7.112 l 1.975,0 c 0,0 -0.237,3.976 -0.573,7.867"
             style="fill:#ffcf94;fill-opacity:1;fill-rule:nonzero;stroke:none"
             id="path236" /></g><g
           id="g238"
           transform="translate(212.9912,80.9609)"><path
             d="m 0,0 c 0.094,-1.597 0.306,-3.612 0.692,-5.176 l 0.47,-2.107 2.351,0 c 0,0 0.797,3.524 1.029,7.283"
             style="fill:#ffcf94;fill-opacity:1;fill-rule:nonzero;stroke:none"
             id="path240" /></g><g
           id="g242"
           transform="translate(209.4507,139.7988)"><path
             d="m 0,0 c 0,0 -6.678,-8.653 -7.242,-15.801 -0.564,-7.148 8.678,-9.948 8.678,-9.948 l 0.943,2.564 c 0,0 -8.916,4.676 -1.744,14.825 0,0 -1.011,5.068 -0.635,8.36"
             style="fill:#ffcf94;fill-opacity:1;fill-rule:nonzero;stroke:none"
             id="path244" /></g><g
           id="g246"
           transform="translate(208.6333,114.9805)"><path
             d="m 0,0 c 0,0 -1.29,-9.786 2.691,-21.152 0,0 1.486,-3.607 1.559,-5.465 0.072,-1.859 0.108,-7.403 0.108,-7.403 0,0 2.878,-0.383 4.541,0 0,0 0.081,3.564 -0.519,6.742 -0.43,2.275 0.042,4.782 0.166,5.604 0.096,0.64 0.353,1.862 0.353,3.057 0,1.043 0.336,4.544 -0.982,10.936 0,0 5.44,-10.943 9.398,-16.873 0,0 0.599,-0.983 1.368,-3.544 0.769,-2.56 1.918,-6.092 1.918,-6.092 0,0 3.594,-0.739 4.191,0.754 0,0 -0.817,7.979 -1.402,9.755 -0.585,1.776 -1.881,5.224 -1.881,5.224 0,0 -2.229,12.336 -5.675,19.711 0,0 -1.48,-1.315 -15.834,-1.254"
             style="fill:#4d308e;fill-opacity:1;fill-rule:nonzero;stroke:none"
             id="path248" /></g><g
           id="g250"
           transform="translate(211.708,140.5508)"><path
             d="m 0,0 c 0,0 3.896,-4.396 7.282,0.306 l 2.499,-0.729 c 0,0 -4.274,-5.761 1.087,-7.531 0,0 0.555,-5.122 -2.687,-7.803 0,0 2.236,-2.774 4.579,-8.559 0,0 -2.856,-3.511 -15.835,-1.254 0,0 1.24,4.855 3.197,9.299 0,0 -2.191,2.54 -2.379,15.519 0,0 1.41,0.518 2.257,0.752"
             style="fill:#ff5268;fill-opacity:1;fill-rule:nonzero;stroke:none"
             id="path252" /></g><g
           id="g254"
           transform="translate(221.4893,140.1279)"><path
             d="m 0,0 c 0,0 8.418,-3.715 12.368,1.646 3.95,5.361 2.68,11.427 2.68,11.427 0,0 -1.34,0 -1.763,2.116 -0.423,2.117 -0.071,2.681 -0.071,2.681 0,0 0.635,0.211 0.847,-0.776 l 0.211,-0.988 c 0,0 0.431,2.519 0.39,4.836 -0.01,0.539 0.766,1.015 0.907,0.275 0.208,-1.092 0.044,-2.246 0.044,-2.246 0,0 1.41,-0.043 1.834,-1.101 0.423,-1.058 -0.282,-4.303 -0.494,-4.444 0,0 5.125,-20.957 -15.867,-20.957 0,0 -2.026,0.522 -2.569,2.307 C -2.293,-2.559 -1.061,-1.057 0,0"
             style="fill:#ffcf94;fill-opacity:1;fill-rule:nonzero;stroke:none"
             id="path256" /></g><g
           id="g258"
           transform="translate(220.6797,153.5996)"><path
             d="m 0,0 c 1.819,-5.035 -0.146,-8.346 -0.146,-8.346 0,0 -1.26,-1.64 -3.186,-0.83 0,0 -0.462,-1.425 0,-2.271 0.462,-0.848 1.643,-1.296 1.643,-1.296 0,0 -2.794,-4.794 -7.283,-0.306 0,0 0.98,1.909 0.633,4.182 L 0,0 z"
             style="fill:#ffcf94;fill-opacity:1;fill-rule:nonzero;stroke:none"
             id="path260" /></g><g
           id="g262"
           transform="translate(215.188,159.6436)"><path
             d="m 0,0 c 0,0 -5.612,3.476 -8.371,-1.692 -4.633,-8.679 4.099,-13.451 4.099,-13.451 0,0 -9.176,-9.345 -3.909,-16.681 5.266,-7.336 13.139,-2.465 12.576,4.777 -0.565,7.241 -4.861,11.738 -5.316,12.02 -0.455,0.282 4.505,0.637 6.267,7.785 C 6.195,-3.794 3.198,0.94 0,0"
             style="fill:#6344a9;fill-opacity:1;fill-rule:nonzero;stroke:none"
             id="path264" /></g><g
           id="g266"
           transform="translate(214.1533,73.6777)"><path
             d="m 0,0 c 0,0 -0.408,-1.129 -0.761,-2.19 -0.353,-1.062 0.988,-1.174 2.61,-1.174 1.622,0 2.187,0.056 1.693,1.062 C 3.048,-1.296 2.351,0 2.351,0 L 0,0 z"
             style="fill:#6344a9;fill-opacity:1;fill-rule:nonzero;stroke:none"
             id="path268" /></g><g
           id="g270"
           transform="translate(232.0229,73.6777)"><path
             d="m 0,0 c 0,0 -0.626,-1.706 0,-2.623 0.626,-0.917 7.681,0 7.681,0 0,0 1.269,1.269 -1.482,1.41 C 3.448,-1.071 1.975,0 1.975,0 L 0,0 z"
             style="fill:#6344a9;fill-opacity:1;fill-rule:nonzero;stroke:none"
             id="path272" /></g></g></g></g></svg>