<!-- Created with Inkscape (http://www.inkscape.org/) -->
<svg xmlns:rdf="http://www.w3.org/1999/02/22-rdf-syntax-ns#" xmlns="http://www.w3.org/2000/svg" version="1.1" xmlns:cc="http://creativecommons.org/ns#" xmlns:xlink="http://www.w3.org/1999/xlink" viewBox="0 0 360 160" xmlns:dc="http://purl.org/dc/elements/1.1/">
 <defs></defs>
 <metadata>
  <rdf:RDF>
   <cc:Work rdf:about="">
    <dc:format>image/svg+xml</dc:format>
    <dc:type rdf:resource="http://purl.org/dc/dcmitype/StillImage"/>
    <dc:title/>
   </cc:Work>
  </rdf:RDF>
 </metadata>
 <g transform="translate(0,-892.36218)">
  <path fill="#005dba" d="M64,42l-33,19v38l33,19,33-19v-19l-15.656-9.031,15.656-9.969-33-19z" transform="translate(0,892.36218)"/>
  <path fill="#a9d3ff" d="M64,42l-33,19v19l17,10,16,9,16-9-32-19,16-10,17.344,9.969,15.656-9.969-33-19z" transform="translate(0,892.36218)"/>
  <path d="m162.16,985.19c2.176,0,3.76-0.368,4.752-1.104,0.99198-0.736,1.488-1.776,1.488-3.12-0.00002-0.79999-0.17602-1.488-0.528-2.064-0.32002-0.57599-0.80002-1.088-1.44-1.536-0.60801-0.47999-1.36-0.91199-2.256-1.296-0.89601-0.41599-1.92-0.81599-3.072-1.2-1.152-0.41599-2.272-0.86399-3.36-1.344-1.056-0.51199-2-1.136-2.832-1.872-0.8-0.73598-1.456-1.616-1.968-2.64-0.48-1.024-0.72-2.256-0.72-3.696,0-3.008,1.04-5.36,3.12-7.056,2.08-1.728,4.912-2.592,8.496-2.592,2.08,0.00003,3.92,0.24003,5.52,0.72,1.632,0.44803,2.912,0.94403,3.84,1.488l-1.872,4.896c-1.088-0.60798-2.288-1.072-3.6-1.392-1.28-0.31997-2.608-0.47997-3.984-0.48-1.632,0.00003-2.912,0.33603-3.84,1.008-0.89601,0.67202-1.344,1.616-1.344,2.832-0.00001,0.73602,0.14399,1.376,0.432,1.92,0.31999,0.51202,0.75199,0.97602,1.296,1.392,0.57599,0.41602,1.232,0.80002,1.968,1.152,0.76799,0.35202,1.6,0.68802,2.496,1.008,1.568,0.57602,2.96,1.168,4.176,1.776,1.248,0.57601,2.288,1.28,3.12,2.112,0.86398,0.80001,1.52,1.76,1.968,2.88,0.44798,1.088,0.67198,2.416,0.672,3.984-0.00002,3.008-1.072,5.344-3.216,7.008-2.112,1.632-5.216,2.448-9.312,2.448-1.376,0-2.64-0.096-3.792-0.288-1.12-0.16-2.128-0.368-3.024-0.624-0.864-0.256-1.616-0.512-2.256-0.768-0.64-0.288-1.152-0.544-1.536-0.768l1.776-4.944c0.864,0.48,2.032,0.96,3.504,1.44s3.248,0.72,5.328,0.72" style="text-align:start;" fill="#a9d3ff"/>
  <path d="m198.33,977.27c-0.00002-2.592-0.59202-4.608-1.776-6.048-1.152-1.44-3.024-2.16-5.616-2.16-0.54401,0.00002-1.12,0.032-1.728,0.096-0.57601,0.032-1.152,0.12802-1.728,0.288v14.352c0.51199,0.352,1.184,0.688,2.016,1.008,0.86399,0.288,1.776,0.432,2.736,0.432,2.112,0,3.648-0.72,4.608-2.16,0.99198-1.44,1.488-3.376,1.488-5.808m5.952-0.096c-0.00003,1.92-0.25603,3.68-0.768,5.28-0.48002,1.6-1.184,2.976-2.112,4.128-0.92802,1.152-2.096,2.048-3.504,2.688-1.376,0.64-2.944,0.96-4.704,0.96-1.184,0-2.272-0.144-3.264-0.432-0.99201-0.288-1.808-0.608-2.448-0.96v9.744h-5.808v-33.168c1.184-0.31998,2.64-0.62398,4.368-0.912,1.728-0.28798,3.552-0.43198,5.472-0.432,1.984,0.00002,3.76,0.30402,5.328,0.912,1.568,0.60802,2.896,1.488,3.984,2.64,1.12,1.12,1.968,2.496,2.544,4.128,0.60797,1.6,0.91197,3.408,0.912,5.424" style="text-align:start;" fill="#a9d3ff"/>
  <path d="m208.88,977.18c0-1.856,0.288-3.584,0.864-5.184,0.576-1.632,1.392-3.04,2.448-4.224,1.088-1.184,2.4-2.112,3.936-2.784,1.536-0.67198,3.264-1.008,5.184-1.008,2.368,0.00002,4.608,0.43202,6.72,1.296l-1.248,4.752c-0.67202-0.28798-1.44-0.52798-2.304-0.72-0.83202-0.19198-1.728-0.28798-2.688-0.288-2.272,0.00002-4,0.72002-5.184,2.16-1.184,1.408-1.776,3.408-1.776,6-0.00001,2.496,0.55999,4.48,1.68,5.952,1.12,1.44,3.008,2.16,5.664,2.16,0.99198,0,1.968-0.096,2.928-0.288,0.95998-0.192,1.792-0.432,2.496-0.72l0.816,4.8c-0.64002,0.32-1.616,0.608-2.928,0.864-1.28,0.256-2.608,0.384-3.984,0.384-2.144,0-4.016-0.32-5.616-0.96-1.568-0.672-2.88-1.584-3.936-2.736-1.024-1.184-1.792-2.576-2.304-4.176-0.512-1.632-0.768-3.392-0.768-5.28" style="text-align:start;" fill="#a9d3ff"/>
  <path d="m240.77,974.39c0.73599-0.76799,1.52-1.584,2.352-2.448,0.83199-0.89598,1.648-1.776,2.448-2.64,0.79999-0.89598,1.552-1.744,2.256-2.544,0.73598-0.83198,1.36-1.552,1.872-2.16h6.864c-1.6,1.792-3.296,3.648-5.088,5.568-1.76,1.92-3.536,3.792-5.328,5.616,0.95998,0.80001,1.968,1.776,3.024,2.928,1.056,1.12,2.08,2.32,3.072,3.6,0.99198,1.28,1.92,2.56,2.784,3.84,0.86398,1.28,1.584,2.464,2.16,3.552h-6.72c-0.57602-0.992-1.248-2.032-2.016-3.12-0.73602-1.088-1.536-2.144-2.4-3.168-0.86401-1.024-1.744-1.984-2.64-2.88-0.89601-0.92799-1.776-1.712-2.64-2.352v11.52h-5.808v-36.288l5.808-0.96v21.936" style="text-align:start;" fill="#a9d3ff"/>
  <path d="m291.66,990.43c-2.272,0-4.224-0.32-5.856-0.96-1.632-0.672-2.992-1.6-4.08-2.784-1.056-1.184-1.84-2.576-2.352-4.176s-0.768-3.36-0.768-5.28v-20.784h6.096v20.208c-0.00001,1.504,0.15999,2.8,0.48,3.888,0.35199,1.056,0.83199,1.92,1.44,2.592,0.63999,0.672,1.376,1.168,2.208,1.488,0.86399,0.32,1.824,0.48,2.88,0.48s2.016-0.16,2.88-0.48c0.86398-0.32,1.6-0.816,2.208-1.488,0.63998-0.672,1.12-1.536,1.44-2.592,0.35198-1.088,0.52798-2.384,0.528-3.888v-20.208h6.096v20.784c-0.00003,1.92-0.27203,3.68-0.816,5.28-0.51203,1.6-1.312,2.992-2.4,4.176-1.056,1.184-2.416,2.112-4.08,2.784-1.664,0.64-3.632,0.96-5.904,0.96" style="text-align:start;" fill="#a9d3ff"/>
  <path style="text-align:start;" fill="#a9d3ff" d="m320.16,989.71-5.808,0,0-25.104,5.808,0,0,25.104"/>
 </g>
</svg>
