<?xml version="1.0" encoding="UTF-8" standalone="no"?>
<!-- Created with Inkscape (http://www.inkscape.org/) -->

<svg
  xmlns:dc="http://purl.org/dc/elements/1.1/"
  xmlns:cc="http://creativecommons.org/ns#"
  xmlns:rdf="http://www.w3.org/1999/02/22-rdf-syntax-ns#"
  xmlns:svg="http://www.w3.org/2000/svg"
  xmlns="http://www.w3.org/2000/svg"
  xmlns:xlink="http://www.w3.org/1999/xlink"
  xmlns:sodipodi="http://sodipodi.sourceforge.net/DTD/sodipodi-0.dtd"
  xmlns:inkscape="http://www.inkscape.org/namespaces/inkscape"
  version="1.1"
  viewBox="0 0 360 160"
  id="svg3249"
  inkscape:version="0.48.4 r9939"
  width="100%"
  height="100%"
  sodipodi:docname="logo.svg">
  <sodipodi:namedview
    pagecolor="#ffffff"
    bordercolor="#666666"
    borderopacity="1"
    objecttolerance="10"
    gridtolerance="10"
    guidetolerance="10"
    inkscape:pageopacity="0"
    inkscape:pageshadow="2"
    inkscape:window-width="1301"
    inkscape:window-height="744"
    id="namedview3273"
    showgrid="false"
    inkscape:zoom="2.8284271"
    inkscape:cx="124.18765"
    inkscape:cy="82.014895"
    inkscape:window-x="65"
    inkscape:window-y="24"
    inkscape:window-maximized="1"
    inkscape:current-layer="svg3249" />
  <defs
    id="defs3251">
    <linearGradient
      id="linearGradient4111">
      <stop
        style="stop-color:#55ffb1;stop-opacity:1;"
        offset="0"
        id="stop4113" />
      <stop
        style="stop-color:#00de78;stop-opacity:1;"
        offset="1"
        id="stop4115" />
    </linearGradient>
    <linearGradient
      id="linearGradient4103">
      <stop
        style="stop-color:#51a7ff;stop-opacity:1;"
        offset="0"
        id="stop4105" />
      <stop
        style="stop-color:#0072e7;stop-opacity:1;"
        offset="1"
        id="stop4107" />
    </linearGradient>
    <linearGradient
      inkscape:collect="always"
      xlink:href="#linearGradient4103"
      id="linearGradient4109"
      x1="31.25"
      y1="99.125"
      x2="79.75"
      y2="90.5"
      gradientUnits="userSpaceOnUse" />
    <linearGradient
      inkscape:collect="always"
      xlink:href="#linearGradient4111"
      id="linearGradient4117"
      x1="64"
      y1="42.125"
      x2="48"
      y2="70.75"
      gradientUnits="userSpaceOnUse" />
    <linearGradient
      inkscape:collect="always"
      xlink:href="#linearGradient4111"
      id="linearGradient4125"
      x1="31.353554"
      y1="80.176773"
      x2="79.823219"
      y2="90.076271"
      gradientUnits="userSpaceOnUse" />
    <linearGradient
      inkscape:collect="always"
      xlink:href="#linearGradient4103"
      id="linearGradient4133"
      x1="96.790367"
      y1="80"
      x2="48.38641"
      y2="71.337944"
      gradientUnits="userSpaceOnUse" />
  </defs>
  <metadata
    id="metadata3253">
    <rdf:RDF>
      <cc:Work
        rdf:about="">
        <dc:format>image/svg+xml</dc:format>
        <dc:type
          rdf:resource="http://purl.org/dc/dcmitype/StillImage" />
        <dc:title />
      </cc:Work>
    </rdf:RDF>
  </metadata>
  <path
    style="fill:url(#linearGradient4109);fill-opacity:1"
    d="M 64,60 32,79 48,89 31,99 64,118 97,99 97,80 81.34375,70.96875 z"
    id="path3257"
    inkscape:connector-curvature="0"
    sodipodi:nodetypes="ccccccccc" />
  <path
    inkscape:connector-curvature="0"
    style="fill:url(#linearGradient4117);fill-opacity:1"
    id="path3259"
    d="M 64,42 31,61 31,80 48,90 64,99 80,90 48,71 64,61 80.28334,70.350282 97,61 z"
    sodipodi:nodetypes="ccccccccccc" />
  <path
    inkscape:connector-curvature="0"
    id="path3261"
    style="text-align:start;fill:#ffffff"
    d="m 151.65177,94.20694 c 2.48627,0 4.29613,-0.420473 5.42958,-1.261418 1.13343,-0.840946 1.70017,-2.029238 1.70017,-3.564878 -2e-5,-0.914059 -0.20112,-1.700172 -0.60328,-2.358303 -0.36566,-0.65812 -0.9141,-1.243137 -1.64533,-1.755017 -0.69471,-0.548431 -1.55392,-1.042029 -2.57768,-1.480795 -1.02377,-0.475305 -2.19377,-0.932341 -3.51004,-1.371107 -1.31626,-0.475305 -2.59596,-0.987185 -3.83909,-1.535639 -1.20658,-0.584994 -2.28518,-1.297981 -3.23582,-2.138927 -0.91407,-0.840922 -1.66361,-1.846423 -2.24861,-3.016434 -0.54844,-1.170011 -0.82267,-2.577681 -0.82267,-4.223009 0,-3.436907 1.1883,-6.124276 3.56488,-8.062107 2.37659,-1.974394 5.6124,-2.961591 9.70744,-2.961591 2.37658,3.5e-5 4.47895,0.274256 6.30709,0.822664 1.8647,0.511914 3.32722,1.078639 4.38754,1.700173 l -2.13893,5.594115 c -1.24313,-0.694671 -2.61424,-1.224855 -4.11332,-1.590484 -1.46251,-0.365594 -2.97987,-0.548408 -4.55207,-0.548442 -1.86471,3.4e-5 -3.32722,0.383944 -4.38754,1.151729 -1.02377,0.767843 -1.53564,1.846424 -1.53564,3.235812 -1e-5,0.840968 0.16452,1.572202 0.4936,2.193771 0.36561,0.585028 0.85921,1.115189 1.48079,1.590483 0.65812,0.47534 1.40767,0.914094 2.24862,1.316263 0.87749,0.402214 1.82814,0.786124 2.8519,1.151729 1.79158,0.658154 3.38206,1.334544 4.77145,2.029238 1.42595,0.658143 2.61424,1.462514 3.56488,2.413148 0.98717,0.914083 1.73673,2.010957 2.24861,3.290656 0.51186,1.243137 0.7678,2.760495 0.76782,4.552074 -2e-5,3.436908 -1.22485,6.105995 -3.67456,8.007263 -2.41315,1.864706 -5.95975,2.797063 -10.63979,2.797063 -1.5722,0 -3.01644,-0.10969 -4.3327,-0.329071 -1.2797,-0.182814 -2.43143,-0.420472 -3.45519,-0.712975 -0.98719,-0.292503 -1.84642,-0.585006 -2.57768,-0.877508 -0.73126,-0.329066 -1.31626,-0.621569 -1.75502,-0.877509 l 2.02924,-5.648959 c 0.9872,0.548443 2.32174,1.096885 4.00363,1.645328 1.6819,0.548443 3.71113,0.822664 6.08772,0.822664" />
  <path
    inkscape:connector-curvature="0"
    id="path3263"
    style="text-align:start;fill:#ffffff"
    d="m 192.97921,85.157636 c -2e-5,-2.961591 -0.67644,-5.26505 -2.02924,-6.910378 -1.31626,-1.645328 -3.45519,-2.467992 -6.41678,-2.467992 -0.62158,2.3e-5 -1.2797,0.03656 -1.97439,0.109689 -0.65814,0.03656 -1.31626,0.146274 -1.9744,0.329065 v 16.398436 c 0.585,0.402191 1.35283,0.786101 2.30346,1.15173 0.98719,0.329065 2.02924,0.493598 3.12613,0.493598 2.41314,0 4.16816,-0.822664 5.26505,-2.467992 1.13342,-1.645328 1.70017,-3.85738 1.70017,-6.636156 m 6.80069,-0.109689 c -4e-5,2.193771 -0.29254,4.204727 -0.87751,6.03287 -0.54847,1.828142 -1.35283,3.400344 -2.41315,4.716607 -1.06034,1.316262 -2.39486,2.340022 -4.00363,3.071279 -1.5722,0.731257 -3.36378,1.096885 -5.37474,1.096885 -1.35282,0 -2.59596,-0.164533 -3.72941,-0.493598 -1.13346,-0.329066 -2.0658,-0.694694 -2.79706,-1.096886 v 11.133386 h -6.63615 V 71.611102 c 1.35282,-0.365606 3.01643,-0.712953 4.99083,-1.042041 1.97439,-0.329043 4.05847,-0.493576 6.25224,-0.493599 2.2669,2.3e-5 4.29614,0.34737 6.08772,1.042041 1.79158,0.694717 3.30893,1.700173 4.55207,3.016435 1.2797,1.2797 2.24862,2.851902 2.90675,4.716607 0.69466,1.828142 1.042,3.893943 1.04204,6.197402" />
  <path
    inkscape:connector-curvature="0"
    id="path3265"
    style="text-align:start;fill:#ffffff"
    d="m 205.03352,85.054803 c 0,-2.120645 0.32907,-4.095039 0.9872,-5.923181 0.65813,-1.864705 1.59048,-3.47347 2.79706,-4.826296 1.24313,-1.352825 2.74221,-2.413147 4.49723,-3.180967 1.75501,-0.767797 3.72941,-1.15173 5.92318,-1.15173 2.70565,2.3e-5 5.26505,0.493621 7.67819,1.480795 l -1.42595,5.429583 c -0.76784,-0.329043 -1.64532,-0.603264 -2.63252,-0.822664 -0.95066,-0.219354 -1.9744,-0.329043 -3.07128,-0.329066 -2.59596,2.3e-5 -4.57036,0.822687 -5.92318,2.467992 -1.35283,1.608765 -2.02924,3.893943 -2.02924,6.855534 -1e-5,2.851902 0.63984,5.118798 1.91955,6.800689 1.2797,1.645328 3.43691,2.467992 6.47162,2.467992 1.13343,0 2.24862,-0.109689 3.3455,-0.329066 1.09687,-0.219377 2.04752,-0.493598 2.85191,-0.822664 l 0.93235,5.484427 c -0.73128,0.365629 -1.84643,0.694694 -3.3455,0.987197 -1.46252,0.292503 -2.97987,0.438752 -4.55208,0.438752 -2.44971,0 -4.58863,-0.365626 -6.41678,-1.096883 -1.79157,-0.76782 -3.29065,-1.809861 -4.49723,-3.126124 -1.17001,-1.352825 -2.04751,-2.943309 -2.63252,-4.771451 -0.58501,-1.864705 -0.87751,-3.875661 -0.87751,-6.032869" />
  <path
    inkscape:connector-curvature="0"
    id="path3267"
    style="text-align:start;fill:#ffffff"
    d="m 241.47068,81.86698 c 0.84094,-0.877497 1.73674,-1.809861 2.68737,-2.797058 0.95062,-1.023737 1.88299,-2.029238 2.79706,-3.016435 0.91406,-1.023736 1.7733,-1.992675 2.57768,-2.906746 0.84092,-0.950611 1.55392,-1.773298 2.13893,-2.467992 h 7.84273 c -1.82815,2.047519 -3.76598,4.168164 -5.8135,6.361935 -2.01095,2.193771 -4.04019,4.332697 -6.08771,6.416779 1.09686,0.914083 2.24861,2.029238 3.45519,3.345501 1.20657,1.279699 2.37658,2.650806 3.51003,4.11332 1.13343,1.462514 2.19377,2.925027 3.18097,4.387541 0.98717,1.462514 1.80986,2.815339 2.46799,4.058476 h -7.6782 c -0.65815,-1.133448 -1.42595,-2.321741 -2.30346,-3.564877 -0.84096,-1.243137 -1.75501,-2.449711 -2.74221,-3.619722 -0.98721,-1.170011 -1.99267,-2.266896 -3.01643,-3.290656 -1.02377,-1.060311 -2.02924,-1.956112 -3.01644,-2.687369 v 13.162624 h -6.63615 V 57.900035 l 6.63615,-1.096886 V 81.86698" />
  <path
    inkscape:connector-curvature="0"
    id="path3269"
    style="text-align:start;fill:#ffffff"
    d="m 299.61703,100.19411 c -2.59596,0 -4.82629,-0.365633 -6.691,-1.09689 -1.8647,-0.767819 -3.41863,-1.828142 -4.66176,-3.180967 -1.20658,-1.352825 -2.10237,-2.943309 -2.68737,-4.771451 -0.58501,-1.828143 -0.87751,-3.839099 -0.87751,-6.03287 V 61.364364 h 6.96522 v 23.089437 c -10e-6,1.718454 0.18281,3.199249 0.54845,4.442386 0.40218,1.206574 0.95062,2.19377 1.64532,2.96159 0.73125,0.76782 1.57221,1.334544 2.52284,1.700172 0.98719,0.365629 2.08408,0.548443 3.29066,0.548443 1.20657,0 2.30345,-0.182814 3.29065,-0.548443 0.98718,-0.365628 1.82814,-0.932352 2.52284,-1.700172 0.73123,-0.76782 1.2797,-1.755016 1.64533,-2.96159 0.40216,-1.243137 0.60326,-2.723932 0.60328,-4.442386 V 61.364364 h 6.96522 v 23.747568 c -3e-5,2.193771 -0.31081,4.204727 -0.93235,6.03287 -0.58504,1.828142 -1.49907,3.418626 -2.74221,4.771451 -1.20657,1.352825 -2.7605,2.413148 -4.66176,3.180967 -1.90127,0.731257 -4.14989,1.09689 -6.74585,1.09689" />
  <path
    inkscape:connector-curvature="0"
    id="path3271"
    d="m 332.18082,99.371442 -6.63616,0 0,-28.683552 6.63616,0 0,28.683552"
    style="text-align:start;fill:#ffffff" />
  <path
    sodipodi:nodetypes="cccccc"
    d="M 31,61 31,80 64,99 80,90 48,71 z"
    id="path4084"
    style="fill:url(#linearGradient4125);fill-opacity:1"
    inkscape:connector-curvature="0" />
  <path
    style="fill:url(#linearGradient4133);fill-opacity:1.0"
    d="M 64,61 48,71 80,90 97,99 97,80 z"
    id="path4092"
    inkscape:connector-curvature="0"
    sodipodi:nodetypes="cccccc" />
</svg>
