<?xml version="1.0" encoding="UTF-8" standalone="no"?>
<svg
   xmlns:dc="http://purl.org/dc/elements/1.1/"
   xmlns:cc="http://creativecommons.org/ns#"
   xmlns:rdf="http://www.w3.org/1999/02/22-rdf-syntax-ns#"
   xmlns:svg="http://www.w3.org/2000/svg"
   xmlns="http://www.w3.org/2000/svg"
   xmlns:sodipodi="http://sodipodi.sourceforge.net/DTD/sodipodi-0.dtd"
   xmlns:inkscape="http://www.inkscape.org/namespaces/inkscape"
   width="16"
   height="16"
   viewBox="0 0 16 16"
   version="1.1"
   id="svg38571"
   sodipodi:docname="alert-16.svg"
   inkscape:version="1.0.1 (c497b03c, 2020-09-10)">
  <metadata
     id="metadata38577">
    <rdf:RDF>
      <cc:Work
         rdf:about="">
        <dc:format>image/svg+xml</dc:format>
        <dc:type
           rdf:resource="http://purl.org/dc/dcmitype/StillImage" />
      </cc:Work>
    </rdf:RDF>
  </metadata>
  <defs
     id="defs38575" />
  <sodipodi:namedview
     pagecolor="#ffffff"
     bordercolor="#666666"
     borderopacity="1"
     objecttolerance="10"
     gridtolerance="10"
     guidetolerance="10"
     inkscape:pageopacity="0"
     inkscape:pageshadow="2"
     inkscape:window-width="689"
     inkscape:window-height="480"
     id="namedview38573"
     showgrid="false"
     inkscape:zoom="38.8125"
     inkscape:cx="7.9484702"
     inkscape:cy="9.5201288"
     inkscape:window-x="0"
     inkscape:window-y="23"
     inkscape:window-maximized="0"
     inkscape:current-layer="svg38571" />
  <path
     fill-rule="evenodd"
     d="m 8.22,1.754 c -0.09446,-0.1750088 -0.3455403,-0.1750088 -0.44,0 L 1.698,13.132 c -0.089081,0.166384 0.03127,0.367698 0.22,0.368 h 12.164 c 0.18873,-3.02e-4 0.309081,-0.201616 0.22,-0.368 z M 6.457,1.047 c 0.659,-1.234 2.427,-1.234 3.086,0 l 6.082,11.378 C 16.248086,13.590611 15.403698,14.999749 14.082,15 H 1.918 C 0.59630156,14.999749 -0.24808644,13.590611 0.375,12.425 Z M 9,11 C 9,12.333333 7,12.333333 7,11 7,9.6666672 9,9.6666672 9,11 Z M 8.75,8.25 c 0,0.9999996 -1.5,0.9999996 -1.5,0 v -2.5 c 0,-0.9999996 1.5,-0.9999996 1.5,0 z"
     id="path38569"
     sodipodi:nodetypes="ccccccccccccccssssssss" />
</svg>
