<?xml version="1.0" encoding="UTF-8" standalone="no"?>
<svg
   xmlns:dc="http://purl.org/dc/elements/1.1/"
   xmlns:cc="http://creativecommons.org/ns#"
   xmlns:rdf="http://www.w3.org/1999/02/22-rdf-syntax-ns#"
   xmlns:svg="http://www.w3.org/2000/svg"
   xmlns="http://www.w3.org/2000/svg"
   xmlns:sodipodi="http://sodipodi.sourceforge.net/DTD/sodipodi-0.dtd"
   xmlns:inkscape="http://www.inkscape.org/namespaces/inkscape"
   width="24"
   height="24"
   viewBox="0 0 24 24"
   version="1.1"
   id="svg839"
   sodipodi:docname="archive-24.svg"
   inkscape:version="1.0.1 (c497b03c, 2020-09-10)">
  <metadata
     id="metadata845">
    <rdf:RDF>
      <cc:Work
         rdf:about="">
        <dc:format>image/svg+xml</dc:format>
        <dc:type
           rdf:resource="http://purl.org/dc/dcmitype/StillImage" />
      </cc:Work>
    </rdf:RDF>
  </metadata>
  <defs
     id="defs843" />
  <sodipodi:namedview
     pagecolor="#ffffff"
     bordercolor="#666666"
     borderopacity="1"
     objecttolerance="10"
     gridtolerance="10"
     guidetolerance="10"
     inkscape:pageopacity="0"
     inkscape:pageshadow="2"
     inkscape:window-width="1440"
     inkscape:window-height="900"
     id="namedview841"
     showgrid="false"
     inkscape:zoom="25.75"
     inkscape:cx="12"
     inkscape:cy="12"
     inkscape:window-x="0"
     inkscape:window-y="0"
     inkscape:window-maximized="0"
     inkscape:current-layer="svg839" />
  <path
     fill-rule="evenodd"
     d="M 2.75,2 C 1.7835017,2 1,2.7835017 1,3.75 v 3.5 C 1,8.216 1.784,9 2.75,9 h 18.5 C 22.216498,9 23,8.2164983 23,7.25 V 3.75 C 23,2.7835017 22.216498,2 21.25,2 Z M 21.5,3.75 v 3.5 c 0,0.1380712 -0.111929,0.25 -0.25,0.25 H 2.75 C 2.612,7.5 2.5,7.388 2.5,7.25 V 3.75 C 2.5,3.6119288 2.6119288,3.5 2.75,3.5 h 18.5 c 0.138071,0 0.25,0.1119288 0.25,0.25 z"
     id="path833"
     sodipodi:nodetypes="ssssssssssssssssss" />
  <path
     d="M2.75 10a.75.75 0 01.75.75v9.5c0 .138.112.25.25.25h16.5a.25.25 0 00.25-.25v-9.5a.75.75 0 011.5 0v9.5A1.75 1.75 0 0120.25 22H3.75A1.75 1.75 0 012 20.25v-9.5a.75.75 0 01.75-.75z"
     id="path835" />
  <path
     d="M9.75 11.5a.75.75 0 000 1.5h4.5a.75.75 0 000-1.5h-4.5z"
     id="path837" />
</svg>
