<?xml version="1.0" encoding="UTF-8" standalone="no"?>
<svg
   xmlns:dc="http://purl.org/dc/elements/1.1/"
   xmlns:cc="http://creativecommons.org/ns#"
   xmlns:rdf="http://www.w3.org/1999/02/22-rdf-syntax-ns#"
   xmlns:svg="http://www.w3.org/2000/svg"
   xmlns="http://www.w3.org/2000/svg"
   xmlns:sodipodi="http://sodipodi.sourceforge.net/DTD/sodipodi-0.dtd"
   xmlns:inkscape="http://www.inkscape.org/namespaces/inkscape"
   width="24"
   height="24"
   viewBox="0 0 24 24"
   version="1.1"
   id="svg8268"
   sodipodi:docname="beaker-24.svg"
   inkscape:version="1.0.1 (c497b03c, 2020-09-10)">
  <metadata
     id="metadata8274">
    <rdf:RDF>
      <cc:Work
         rdf:about="">
        <dc:format>image/svg+xml</dc:format>
        <dc:type
           rdf:resource="http://purl.org/dc/dcmitype/StillImage" />
      </cc:Work>
    </rdf:RDF>
  </metadata>
  <defs
     id="defs8272" />
  <sodipodi:namedview
     pagecolor="#ffffff"
     bordercolor="#666666"
     borderopacity="1"
     objecttolerance="10"
     gridtolerance="10"
     guidetolerance="10"
     inkscape:pageopacity="0"
     inkscape:pageshadow="2"
     inkscape:window-width="1440"
     inkscape:window-height="900"
     id="namedview8270"
     showgrid="false"
     inkscape:zoom="25.875"
     inkscape:cx="12"
     inkscape:cy="12"
     inkscape:window-x="0"
     inkscape:window-y="0"
     inkscape:window-maximized="0"
     inkscape:current-layer="svg8268" />
  <path
     fill-rule="evenodd"
     d="M 8,8.807 V 3.5 H 7.437 C 6.4370004,3.5 6.4370004,2 7.437,2 h 9.125 c 1,0 1,1.5 0,1.5 H 16 v 5.307 l 5.125,9.301 C 22.089,19.858 20.823,22 18.826,22 H 5.174 C 3.176,22 1.911,19.858 2.874,18.108 Z M 14.5,3.5 h -5 V 9 c 4.5e-5,0.1265813 -0.031948,0.2511148 -0.093,0.362 L 7.127,13.5 h 9.746 L 14.593,9.362 C 14.531948,9.2511148 14.499955,9.1265813 14.5,9 Z m -9.326,17 h 13.652 c 0.855979,-2.13e-4 1.398153,-0.91833 0.985,-1.668 L 17.7,15 H 6.3 l -2.111,3.832 c -0.4131527,0.74967 0.1290207,1.667787 0.985,1.668 z"
     id="path8266"
     sodipodi:nodetypes="ccsssscccsscccccccccccccccccc" />
</svg>
