<?xml version="1.0" encoding="UTF-8" standalone="no"?>
<svg
   xmlns:dc="http://purl.org/dc/elements/1.1/"
   xmlns:cc="http://creativecommons.org/ns#"
   xmlns:rdf="http://www.w3.org/1999/02/22-rdf-syntax-ns#"
   xmlns:svg="http://www.w3.org/2000/svg"
   xmlns="http://www.w3.org/2000/svg"
   xmlns:sodipodi="http://sodipodi.sourceforge.net/DTD/sodipodi-0.dtd"
   xmlns:inkscape="http://www.inkscape.org/namespaces/inkscape"
   width="16"
   height="16"
   viewBox="0 0 16 16"
   version="1.1"
   id="svg5984"
   sodipodi:docname="briefcase-16.svg"
   inkscape:version="1.0.1 (c497b03c, 2020-09-10)">
  <metadata
     id="metadata5990">
    <rdf:RDF>
      <cc:Work
         rdf:about="">
        <dc:format>image/svg+xml</dc:format>
        <dc:type
           rdf:resource="http://purl.org/dc/dcmitype/StillImage" />
      </cc:Work>
    </rdf:RDF>
  </metadata>
  <defs
     id="defs5988" />
  <sodipodi:namedview
     pagecolor="#ffffff"
     bordercolor="#666666"
     borderopacity="1"
     objecttolerance="10"
     gridtolerance="10"
     guidetolerance="10"
     inkscape:pageopacity="0"
     inkscape:pageshadow="2"
     inkscape:window-width="1440"
     inkscape:window-height="900"
     id="namedview5986"
     showgrid="false"
     inkscape:zoom="38.8125"
     inkscape:cx="8"
     inkscape:cy="8"
     inkscape:window-x="0"
     inkscape:window-y="0"
     inkscape:window-maximized="0"
     inkscape:current-layer="svg5984" />
  <path
     fill-rule="evenodd"
     d="M 9.25,0 C 10.216498,0 11,0.78350169 11,1.75 V 3 h 3.25 C 15.216498,3 16,3.7835017 16,4.75 v 8.5 C 16,14.216498 15.216498,15 14.25,15 H 1.75 C 0.784,15 0,14.216 0,13.25 V 4.75 C 0,3.7835017 0.78350169,3 1.75,3 H 5 V 1.75 C 5,0.78350169 5.7835017,0 6.75,0 Z M 9.5,3 V 1.75 C 9.5,1.6119288 9.3880712,1.5 9.25,1.5 H 6.75 C 6.6119288,1.5 6.5,1.6119288 6.5,1.75 V 3 Z M 5,4.5 H 1.75 C 1.6119288,4.5 1.5,4.6119288 1.5,4.75 V 6 c 0,1.1045695 0.8954305,2 2,2 h 9 c 1.104569,0 2,-0.8954305 2,-2 V 4.75 C 14.5,4.6119288 14.388071,4.5 14.25,4.5 Z m -1.5,5 C 2.7847793,9.501242 2.0865054,9.2823331 1.5,8.873 v 4.377 c 0,0.138 0.112,0.25 0.25,0.25 h 12.5 c 0.138071,0 0.25,-0.111929 0.25,-0.25 V 8.873 c -0.586505,0.4093331 -1.284779,0.628242 -2,0.627 z"
     id="path5982"
     sodipodi:nodetypes="sscsssssssscssscsssscccsssssssscccssssccc" />
</svg>
