<?xml version="1.0" encoding="UTF-8" standalone="no"?>
<svg
   xmlns:dc="http://purl.org/dc/elements/1.1/"
   xmlns:cc="http://creativecommons.org/ns#"
   xmlns:rdf="http://www.w3.org/1999/02/22-rdf-syntax-ns#"
   xmlns:svg="http://www.w3.org/2000/svg"
   xmlns="http://www.w3.org/2000/svg"
   xmlns:sodipodi="http://sodipodi.sourceforge.net/DTD/sodipodi-0.dtd"
   xmlns:inkscape="http://www.inkscape.org/namespaces/inkscape"
   width="24"
   height="24"
   viewBox="0 0 24 24"
   version="1.1"
   id="svg27706"
   sodipodi:docname="eye-24.svg"
   inkscape:version="1.0.1 (c497b03c, 2020-09-10)">
  <metadata
     id="metadata27712">
    <rdf:RDF>
      <cc:Work
         rdf:about="">
        <dc:format>image/svg+xml</dc:format>
        <dc:type
           rdf:resource="http://purl.org/dc/dcmitype/StillImage" />
      </cc:Work>
    </rdf:RDF>
  </metadata>
  <defs
     id="defs27710" />
  <sodipodi:namedview
     pagecolor="#ffffff"
     bordercolor="#666666"
     borderopacity="1"
     objecttolerance="10"
     gridtolerance="10"
     guidetolerance="10"
     inkscape:pageopacity="0"
     inkscape:pageshadow="2"
     inkscape:window-width="689"
     inkscape:window-height="480"
     id="namedview27708"
     showgrid="false"
     inkscape:zoom="25.875"
     inkscape:cx="12.541063"
     inkscape:cy="12.077295"
     inkscape:window-x="0"
     inkscape:window-y="23"
     inkscape:window-maximized="0"
     inkscape:current-layer="svg27706" />
  <path
     d="m 8.5,12 c 0,4.666665 7,4.666665 7,0 0,-4.6666646 -7,-4.6666646 -7,0 z"
     id="path27702"
     sodipodi:nodetypes="sss" />
  <path
     fill-rule="evenodd"
     d="M12 3.5c-3.432 0-6.125 1.534-8.054 3.24C2.02 8.445.814 10.352.33 11.202a1.6 1.6 0 000 1.598c.484.85 1.69 2.758 3.616 4.46C5.876 18.966 8.568 20.5 12 20.5c3.432 0 6.125-1.534 8.054-3.24 1.926-1.704 3.132-3.611 3.616-4.461a1.6 1.6 0 000-1.598c-.484-.85-1.69-2.757-3.616-4.46C18.124 5.034 15.432 3.5 12 3.5zM1.633 11.945c.441-.774 1.551-2.528 3.307-4.08C6.69 6.314 9.045 5 12 5c2.955 0 5.309 1.315 7.06 2.864 1.756 1.553 2.866 3.307 3.307 4.08a.111.111 0 01.017.056.111.111 0 01-.017.056c-.441.774-1.551 2.527-3.307 4.08C17.31 17.685 14.955 19 12 19c-2.955 0-5.309-1.315-7.06-2.864-1.756-1.553-2.866-3.306-3.307-4.08A.11.11 0 011.616 12a.11.11 0 01.017-.055z"
     id="path27704" />
</svg>
