<?xml version="1.0" encoding="UTF-8" standalone="no"?>
<svg
   xmlns:dc="http://purl.org/dc/elements/1.1/"
   xmlns:cc="http://creativecommons.org/ns#"
   xmlns:rdf="http://www.w3.org/1999/02/22-rdf-syntax-ns#"
   xmlns:svg="http://www.w3.org/2000/svg"
   xmlns="http://www.w3.org/2000/svg"
   xmlns:sodipodi="http://sodipodi.sourceforge.net/DTD/sodipodi-0.dtd"
   xmlns:inkscape="http://www.inkscape.org/namespaces/inkscape"
   width="24"
   height="24"
   viewBox="0 0 24 24"
   version="1.1"
   id="svg13980"
   sodipodi:docname="hourglass-24.svg"
   inkscape:version="1.0.1 (c497b03c, 2020-09-10)">
  <metadata
     id="metadata13986">
    <rdf:RDF>
      <cc:Work
         rdf:about="">
        <dc:format>image/svg+xml</dc:format>
        <dc:type
           rdf:resource="http://purl.org/dc/dcmitype/StillImage" />
      </cc:Work>
    </rdf:RDF>
  </metadata>
  <defs
     id="defs13984" />
  <sodipodi:namedview
     pagecolor="#ffffff"
     bordercolor="#666666"
     borderopacity="1"
     objecttolerance="10"
     gridtolerance="10"
     guidetolerance="10"
     inkscape:pageopacity="0"
     inkscape:pageshadow="2"
     inkscape:window-width="689"
     inkscape:window-height="480"
     id="namedview13982"
     showgrid="false"
     inkscape:zoom="25.875"
     inkscape:cx="9.1014493"
     inkscape:cy="21.89372"
     inkscape:window-x="0"
     inkscape:window-y="23"
     inkscape:window-maximized="0"
     inkscape:current-layer="svg13980" />
  <path
     fill-rule="evenodd"
     d="m 4.75,2 c -0.9999996,0 -0.9999996,1.5 0,1.5 H 5.5 v 2.982 c -6e-7,1.6304043 0.8361935,3.146879 2.215,4.017 l 2.044,1.29 c 0.1545523,0.09821 0.1545523,0.323785 0,0.422 l -2.044,1.29 C 6.3361935,14.371121 5.4999994,15.887596 5.5,17.518 V 20.5 H 4.75 c -0.9999996,0 -0.9999996,1.5 0,1.5 h 14.5 c 1,0 1,-1.5 0,-1.5 H 18.5 v -2.982 c 1e-6,-1.630404 -0.836193,-3.146879 -2.215,-4.017 l -2.044,-1.29 c -0.154552,-0.09821 -0.154552,-0.323785 0,-0.422 l 2.044,-1.29 C 17.663807,9.628879 18.500001,8.1124043 18.5,6.482 V 3.5 h 0.75 c 1,0 1,-1.5 0,-1.5 z M 17,6.482 c -2.65e-4,1.1154642 -0.572567,2.1528569 -1.516,2.748 l -2.044,1.29 c -1.088183,0.686631 -1.088183,2.273369 0,2.96 l 2.044,1.29 c 0.943433,0.595143 1.515735,1.632536 1.516,2.748 V 20.5 H 7 v -2.982 c 2.648e-4,-1.115464 0.5725673,-2.152857 1.516,-2.748 l 2.044,-1.29 c 1.088183,-0.686631 1.088183,-2.273369 0,-2.96 L 8.516,9.23 C 7.5725673,8.6348569 7.0002648,7.5974642 7,6.482 V 3.5 h 10 z"
     id="path13978"
     sodipodi:nodetypes="sscsccccscsssscsccccscsssccccccccccccccccc" />
</svg>
