<?xml version="1.0" encoding="UTF-8" standalone="no"?>
<svg
   xmlns:dc="http://purl.org/dc/elements/1.1/"
   xmlns:cc="http://creativecommons.org/ns#"
   xmlns:rdf="http://www.w3.org/1999/02/22-rdf-syntax-ns#"
   xmlns:svg="http://www.w3.org/2000/svg"
   xmlns="http://www.w3.org/2000/svg"
   xmlns:sodipodi="http://sodipodi.sourceforge.net/DTD/sodipodi-0.dtd"
   xmlns:inkscape="http://www.inkscape.org/namespaces/inkscape"
   width="16"
   height="16"
   viewBox="0 0 16 16"
   version="1.1"
   id="svg2562"
   sodipodi:docname="image-16.svg"
   inkscape:version="1.0.1 (c497b03c, 2020-09-10)">
  <metadata
     id="metadata2568">
    <rdf:RDF>
      <cc:Work
         rdf:about="">
        <dc:format>image/svg+xml</dc:format>
        <dc:type
           rdf:resource="http://purl.org/dc/dcmitype/StillImage" />
      </cc:Work>
    </rdf:RDF>
  </metadata>
  <defs
     id="defs2566" />
  <sodipodi:namedview
     pagecolor="#ffffff"
     bordercolor="#666666"
     borderopacity="1"
     objecttolerance="10"
     gridtolerance="10"
     guidetolerance="10"
     inkscape:pageopacity="0"
     inkscape:pageshadow="2"
     inkscape:window-width="1440"
     inkscape:window-height="900"
     id="namedview2564"
     showgrid="false"
     inkscape:zoom="38.8125"
     inkscape:cx="8"
     inkscape:cy="8"
     inkscape:window-x="0"
     inkscape:window-y="0"
     inkscape:window-maximized="0"
     inkscape:current-layer="svg2562" />
  <path
     fill-rule="evenodd"
     d="m 14.25,2.5 c 0.138071,0 0.25,0.1119288 0.25,0.25 v 7.56 L 11.209,7.332 C 10.517496,6.705989 9.4565236,6.7323813 8.797,7.392 L 2.72,13.47 c -0.010277,0.0097 -0.020281,0.01972 -0.03,0.03 H 1.75 C 1.612,13.5 1.5,13.388 1.5,13.25 V 2.75 C 1.5,2.6119288 1.6119288,2.5 1.75,2.5 Z m 0,11 H 4.81 L 9.858,8.453 c 0.094031,-0.093996 0.245183,-0.09795 0.344,-0.009 l 4.298,3.889 v 0.917 c 0,0.138071 -0.111929,0.25 -0.25,0.25 z M 16,13.25 V 2.75 C 16,1.7835017 15.216498,1 14.25,1 H 1.75 C 0.78350169,1 0,1.7835017 0,2.75 v 10.5 C 0,14.216 0.784,15 1.75,15 h 12.5 C 15.216498,15 16,14.216498 16,13.25 Z M 4.5,6 c 0,0.6666664 1,0.6666664 1,0 0,-0.6666664 -1,-0.6666664 -1,0 z M 7,6 C 7,8.6666655 3,8.6666655 3,6 3,3.3333345 7,3.3333345 7,6 Z"
     id="path2560"
     sodipodi:nodetypes="sscccccssssssccccsssssssssssssssss" />
</svg>
