<?xml version="1.0" encoding="UTF-8" standalone="no"?>
<svg
   xmlns:dc="http://purl.org/dc/elements/1.1/"
   xmlns:cc="http://creativecommons.org/ns#"
   xmlns:rdf="http://www.w3.org/1999/02/22-rdf-syntax-ns#"
   xmlns:svg="http://www.w3.org/2000/svg"
   xmlns="http://www.w3.org/2000/svg"
   xmlns:sodipodi="http://sodipodi.sourceforge.net/DTD/sodipodi-0.dtd"
   xmlns:inkscape="http://www.inkscape.org/namespaces/inkscape"
   width="16"
   height="16"
   viewBox="0 0 16 16"
   version="1.1"
   id="svg835"
   sodipodi:docname="megaphone-16.svg"
   inkscape:version="1.0.1 (c497b03c, 2020-09-10)">
  <metadata
     id="metadata841">
    <rdf:RDF>
      <cc:Work
         rdf:about="">
        <dc:format>image/svg+xml</dc:format>
        <dc:type
           rdf:resource="http://purl.org/dc/dcmitype/StillImage" />
      </cc:Work>
    </rdf:RDF>
  </metadata>
  <defs
     id="defs839" />
  <sodipodi:namedview
     pagecolor="#ffffff"
     bordercolor="#666666"
     borderopacity="1"
     objecttolerance="10"
     gridtolerance="10"
     guidetolerance="10"
     inkscape:pageopacity="0"
     inkscape:pageshadow="2"
     inkscape:window-width="1440"
     inkscape:window-height="900"
     id="namedview837"
     showgrid="false"
     inkscape:zoom="38.625"
     inkscape:cx="8"
     inkscape:cy="8"
     inkscape:window-x="0"
     inkscape:window-y="0"
     inkscape:window-maximized="0"
     inkscape:current-layer="svg835" />
  <path
     fill-rule="evenodd"
     d="M 15.571,0.572 C 15.833025,0.69608627 16.000064,0.96007881 16,1.25 L 14.777,0.668 c 0.001,0 0,0 0,0 L 14.762,0.68 14.686,0.736 C 14.573829,0.81493625 14.458749,0.88965501 14.341,0.96 13.873751,1.2391522 13.384453,1.4796205 12.878,1.679 11.556,2.207 9.527,2.749 6.754,2.75 6.4966898,2.5863161 6.1979603,2.499577 5.893,2.5 H 4 c -4.40043218,-0.00408 -5.5804045,6.0650206 -1.499,7.71 -6.852e-4,0.01332 -0.00102,0.02666 -10e-4,0.04 0,2.32 0.486,3.93 0.813,4.75 0.262,0.66 0.897,1 1.517,1 h 1.197 c 0.685,0 1.228,-0.389 1.546,-0.857 0.317,-0.466 0.468,-1.09 0.31,-1.696 -0.2,-0.767 -0.382,-1.835 -0.383,-3.183 2.394,0.086 4.177,0.577 5.378,1.057 0.506484,0.19931 0.995788,0.439781 1.463,0.719 0.144406,0.08706 0.284877,0.180486 0.421,0.28 l 0.014,0.012 h 0.002 c 0.490032,0.396834 1.221284,0.04856 1.222,-0.582 V 1.25 L 14.777,0.668 C 15.001101,0.48577966 15.309928,0.44844042 15.571,0.572 Z M 5.892,10.5 c 0.036701,-1.02e-4 0.073388,-0.0014 0.11,-0.004 0.00965,1.122872 0.1540187,2.240529 0.43,3.329 0.034058,0.16535 -0.00217,0.337417 -0.1,0.475 -0.103,0.153 -0.222,0.2 -0.305,0.2 H 4.83 c -0.033923,0.001 -0.06748,-0.0073 -0.097,-0.024 C 4.716,14.466 4.71,14.456 4.706,14.446 4.452,13.806 4.035,12.469 4.002,10.5 Z M 7.5,4.237 C 10.1,4.15 12.073,3.616 13.435,3.071 13.846,2.907 14.2,2.742 14.5,2.588 v 7.824 C 14.201,10.259 13.845,10.093 13.435,9.929 12.073,9.383 10.101,8.85 7.5,8.763 Z M 1.5,6.5 C 1.5,5.1192881 2.6192881,4 4,4 H 5.893 C 5.952,4 6,4.048 6,4.107 V 8.893 C 6,8.9520945 5.9520945,9 5.893,9 H 4 C 2.6192881,9 1.5,7.8807119 1.5,6.5 Z"
     id="path833"
     sodipodi:nodetypes="ccccccccccccccssccccccccccccccccsccccccccccccssssssss" />
</svg>
