<?xml version="1.0" encoding="UTF-8" standalone="no"?>
<svg
   xmlns:dc="http://purl.org/dc/elements/1.1/"
   xmlns:cc="http://creativecommons.org/ns#"
   xmlns:rdf="http://www.w3.org/1999/02/22-rdf-syntax-ns#"
   xmlns:svg="http://www.w3.org/2000/svg"
   xmlns="http://www.w3.org/2000/svg"
   xmlns:sodipodi="http://sodipodi.sourceforge.net/DTD/sodipodi-0.dtd"
   xmlns:inkscape="http://www.inkscape.org/namespaces/inkscape"
   width="24"
   height="24"
   viewBox="0 0 24 24"
   version="1.1"
   id="svg19127"
   sodipodi:docname="mortar-board-24.svg"
   inkscape:version="1.0.1 (c497b03c, 2020-09-10)">
  <metadata
     id="metadata19133">
    <rdf:RDF>
      <cc:Work
         rdf:about="">
        <dc:format>image/svg+xml</dc:format>
        <dc:type
           rdf:resource="http://purl.org/dc/dcmitype/StillImage" />
      </cc:Work>
    </rdf:RDF>
  </metadata>
  <defs
     id="defs19131" />
  <sodipodi:namedview
     pagecolor="#ffffff"
     bordercolor="#666666"
     borderopacity="1"
     objecttolerance="10"
     gridtolerance="10"
     guidetolerance="10"
     inkscape:pageopacity="0"
     inkscape:pageshadow="2"
     inkscape:window-width="689"
     inkscape:window-height="480"
     id="namedview19129"
     showgrid="false"
     inkscape:zoom="25.875"
     inkscape:cx="9.4879227"
     inkscape:cy="17.487923"
     inkscape:window-x="0"
     inkscape:window-y="23"
     inkscape:window-maximized="0"
     inkscape:current-layer="svg19127" />
  <path
     fill-rule="evenodd"
     d="m 12.292,2.06 c -0.186671,-0.078903 -0.397329,-0.078903 -0.584,0 L 0.458,6.81 c -0.60808163,0.2590417 -0.60808163,1.1209583 0,1.38 L 4.25,9.793 v 3.803 C 3.7479759,13.725237 3.2897525,13.986635 2.923,14.353 2.344,14.933 2,15.763 2,16.783 v 4.5 c 0,0.248 0.128,0.486 0.335,0.624 0.06,0.04 0.117,0.073 0.22,0.124 0.124,0.062 0.297,0.138 0.52,0.213 0.448,0.149 1.09,0.288 1.925,0.288 0.835,0 1.477,-0.14 1.925,-0.288 0.223,-0.075 0.396,-0.15 0.52,-0.213 0.072167,-0.03498 0.1422803,-0.07404 0.21,-0.117 C 7.8691453,21.773988 7.9987309,21.535851 8,21.28 v -4.5 C 8,15.762 7.656,14.93 7.077,14.352 6.7103948,13.985232 6.2521495,13.723476 5.75,13.594 v -3.17 l 5.958,2.516 c 0.186671,0.0789 0.397329,0.0789 0.584,0 l 5.208,-2.2 v 4.003 c -0.02569,0.02893 -0.05203,0.05727 -0.079,0.085 -0.253083,0.253174 -0.538562,0.471739 -0.849,0.65 -0.826,0.488 -2.255,1.021 -4.572,1.021 -0.612,0 -1.162,-0.037 -1.654,-0.1 -0.9661187,-0.0958 -1.1507669,1.334261 -0.192,1.487 0.56,0.072 1.173,0.113 1.846,0.113 2.558,0 4.254,-0.592 5.334,-1.23 0.538,-0.316 0.914,-0.64 1.163,-0.896 0.1479,-0.145848 0.279353,-0.307481 0.392,-0.482 H 18.89 C 18.961933,15.273265 18.999996,15.13797 19,15 v -4.892 l 4.542,-1.917 c 0.611226,-0.2579182 0.611226,-1.1240818 0,-1.382 L 12.292,2.059 Z M 6.017,15.412 C 6.282,15.677 6.5,16.111 6.5,16.78 v 4.023 C 6.201,20.908 5.703,21.031 5,21.031 4.297,21.031 3.799,20.908 3.5,20.803 V 16.781 C 3.5,16.113 3.718,15.678 3.983,15.413 4.255,15.141 4.623,15 5,15 c 0.3802778,-0.0033 0.7462122,0.144987 1.017,0.412 z M 12,11.436 2.678,7.5 12,3.564 21.322,7.5 Z"
     id="path19125"
     sodipodi:nodetypes="cccccccsssccsccccscccccccccsccscccccccccccscscssccccccc" />
</svg>
