<?xml version="1.0" encoding="UTF-8" standalone="no"?>
<svg
   xmlns:dc="http://purl.org/dc/elements/1.1/"
   xmlns:cc="http://creativecommons.org/ns#"
   xmlns:rdf="http://www.w3.org/1999/02/22-rdf-syntax-ns#"
   xmlns:svg="http://www.w3.org/2000/svg"
   xmlns="http://www.w3.org/2000/svg"
   xmlns:sodipodi="http://sodipodi.sourceforge.net/DTD/sodipodi-0.dtd"
   xmlns:inkscape="http://www.inkscape.org/namespaces/inkscape"
   width="16"
   height="16"
   viewBox="0 0 16 16"
   version="1.1"
   id="svg35139"
   sodipodi:docname="organization-16.svg"
   inkscape:version="1.0.1 (c497b03c, 2020-09-10)">
  <metadata
     id="metadata35145">
    <rdf:RDF>
      <cc:Work
         rdf:about="">
        <dc:format>image/svg+xml</dc:format>
        <dc:type
           rdf:resource="http://purl.org/dc/dcmitype/StillImage" />
      </cc:Work>
    </rdf:RDF>
  </metadata>
  <defs
     id="defs35143" />
  <sodipodi:namedview
     pagecolor="#ffffff"
     bordercolor="#666666"
     borderopacity="1"
     objecttolerance="10"
     gridtolerance="10"
     guidetolerance="10"
     inkscape:pageopacity="0"
     inkscape:pageshadow="2"
     inkscape:window-width="689"
     inkscape:window-height="480"
     id="namedview35141"
     showgrid="false"
     inkscape:zoom="38.8125"
     inkscape:cx="6.1191626"
     inkscape:cy="15.394525"
     inkscape:window-x="0"
     inkscape:window-y="23"
     inkscape:window-maximized="0"
     inkscape:current-layer="svg35139" />
  <path
     fill-rule="evenodd"
     d="m 1.5,14.25 c 0,0.138 0.112,0.25 0.25,0.25 H 4 V 13.25 C 4,12.835786 4.3357864,12.5 4.75,12.5 h 2.5 C 7.6642136,12.5 8,12.835786 8,13.25 v 1.25 h 2.25 c 0.138071,0 0.25,-0.111929 0.25,-0.25 V 1.75 C 10.5,1.6119288 10.388071,1.5 10.25,1.5 H 1.75 C 1.6119288,1.5 1.5,1.6119288 1.5,1.75 Z M 1.75,16 C 0.78350169,16 0,15.216498 0,14.25 V 1.75 C 0,0.784 0.784,0 1.75,0 h 8.5 C 11.216,0 12,0.784 12,1.75 v 12.5 c 0,0.085 -0.006,0.168 -0.018,0.25 h 2.268 c 0.138071,0 0.25,-0.111929 0.25,-0.25 V 8.285 c 6.8e-5,-0.083522 -0.04158,-0.1615616 -0.111,-0.208 L 13.334,7.374 c -0.847365,-0.5515493 -0.003,-1.8180483 0.832,-1.248 l 1.055,0.703 C 15.708,7.154 16,7.7 16,8.285 V 14.25 C 16,15.216498 15.216498,16 14.25,16 h -3.5 c -0.06653,1.09e-4 -0.132777,-0.0086 -0.197,-0.026 C 10.454,15.991 10.353,16 10.25,16 h -3 C 6.8357864,16 6.5,15.664214 6.5,15.25 V 14 h -1 v 1.25 C 5.5,15.664214 5.1642136,16 4.75,16 Z M 3,3.75 C 3,3.3357864 3.3357864,3 3.75,3 h 0.5 c 0.9999996,0 0.9999996,1.5 0,1.5 H 3.75 C 3.3357864,4.5 3,4.1642136 3,3.75 Z M 4.25,6 c 0.9999996,0 0.9999996,1.5 0,1.5 H 3.75 C 2.7500004,7.5 2.7500004,6 3.75,6 Z M 3,9.75 C 3,9.3357864 3.3357864,9 3.75,9 h 0.5 c 0.9999996,0 0.9999996,1.5 0,1.5 H 3.75 C 3.3357864,10.5 3,10.164214 3,9.75 Z M 8.25,9 c 0.9999996,0 0.9999996,1.5 0,1.5 H 7.75 C 6.7500004,10.5 6.7500004,9 7.75,9 Z M 7,6.75 C 7,6.3357864 7.3357864,6 7.75,6 h 0.5 c 0.9999996,0 0.9999996,1.5 0,1.5 H 7.75 C 7.3357864,7.5 7,7.1642136 7,6.75 Z M 8.25,3 c 0.9999996,0 0.9999996,1.5 0,1.5 H 7.75 C 6.7500004,4.5 6.7500004,3 7.75,3 Z"
     id="path35137"
     sodipodi:nodetypes="sscsssscsssssssssssssscsscccccsssccsssccssssssssssssssssssssssssssssssssssss" />
</svg>
