<?xml version="1.0" encoding="UTF-8" standalone="no"?>
<svg
   xmlns:dc="http://purl.org/dc/elements/1.1/"
   xmlns:cc="http://creativecommons.org/ns#"
   xmlns:rdf="http://www.w3.org/1999/02/22-rdf-syntax-ns#"
   xmlns:svg="http://www.w3.org/2000/svg"
   xmlns="http://www.w3.org/2000/svg"
   xmlns:sodipodi="http://sodipodi.sourceforge.net/DTD/sodipodi-0.dtd"
   xmlns:inkscape="http://www.inkscape.org/namespaces/inkscape"
   width="24"
   height="24"
   viewBox="0 0 24 24"
   version="1.1"
   id="svg34568"
   sodipodi:docname="organization-24.svg"
   inkscape:version="1.0.1 (c497b03c, 2020-09-10)">
  <metadata
     id="metadata34574">
    <rdf:RDF>
      <cc:Work
         rdf:about="">
        <dc:format>image/svg+xml</dc:format>
        <dc:type
           rdf:resource="http://purl.org/dc/dcmitype/StillImage" />
      </cc:Work>
    </rdf:RDF>
  </metadata>
  <defs
     id="defs34572" />
  <sodipodi:namedview
     pagecolor="#ffffff"
     bordercolor="#666666"
     borderopacity="1"
     objecttolerance="10"
     gridtolerance="10"
     guidetolerance="10"
     inkscape:pageopacity="0"
     inkscape:pageshadow="2"
     inkscape:window-width="689"
     inkscape:window-height="480"
     id="namedview34570"
     showgrid="false"
     inkscape:zoom="25.875"
     inkscape:cx="5.5072464"
     inkscape:cy="18.454106"
     inkscape:window-x="0"
     inkscape:window-y="23"
     inkscape:window-maximized="0"
     inkscape:current-layer="svg34568" />
  <path
     d="m 7.25,12 c -0.9999996,0 -0.9999996,1.5 0,1.5 h 0.5 c 0.9999996,0 0.9999996,-1.5 0,-1.5 z m 0,-2 h 0.5 c 0.9999996,0 0.9999996,-1.5 0,-1.5 H 7.25 C 6.8357864,8.5 6.5,8.8357864 6.5,9.25 6.5,9.6642136 6.8357864,10 7.25,10 Z m 0,-5 c -0.9999996,0 -0.9999996,1.5 0,1.5 h 0.5 C 8.7499996,6.5 8.7499996,5 7.75,5 Z m 3.5,8.5 h 0.5 c 1,0 1,-1.5 0,-1.5 h -0.5 C 10.335786,12 10,12.335786 10,12.75 c 0,0.414214 0.335786,0.75 0.75,0.75 z m 0,-5 c -0.9999996,0 -0.9999996,1.5 0,1.5 h 0.5 c 1,0 1,-1.5 0,-1.5 z m 0,-2 h 0.5 c 1,0 1,-1.5 0,-1.5 h -0.5 C 10.335786,5 10,5.3357864 10,5.75 10,6.1642136 10.335786,6.5 10.75,6.5 Z m 3.5,5.5 c -1,0 -1,1.5 0,1.5 h 0.5 c 1,0 1,-1.5 0,-1.5 z m 0,-2 h 0.5 c 1,0 1,-1.5 0,-1.5 h -0.5 c -0.414214,0 -0.75,0.3357864 -0.75,0.75 0,0.4142136 0.335786,0.75 0.75,0.75 z m 0,-5 c -1,0 -1,1.5 0,1.5 h 0.5 c 1,0 1,-1.5 0,-1.5 z"
     id="path34564"
     sodipodi:nodetypes="sssssssssssssssssssssssssssssssssssssssssssssssss" />
  <path
     fill-rule="evenodd"
     d="M3 20a2 2 0 002 2h3.75a.75.75 0 00.75-.75V19h3v2.25c0 .414.336.75.75.75H17c.092 0 .183-.006.272-.018a.758.758 0 00.166.018H21.5a2 2 0 002-2v-7.625a2 2 0 00-.8-1.6l-1-.75a.75.75 0 10-.9 1.2l1 .75a.5.5 0 01.2.4V20a.5.5 0 01-.5.5h-2.563c.041-.16.063-.327.063-.5V3a2 2 0 00-2-2H5a2 2 0 00-2 2v17zm2 .5a.5.5 0 01-.5-.5V3a.5.5 0 01.5-.5h12a.5.5 0 01.5.5v17a.5.5 0 01-.5.5h-3v-2.25a.75.75 0 00-.75-.75h-4.5a.75.75 0 00-.75.75v2.25H5z"
     id="path34566" />
</svg>
