<?xml version="1.0" encoding="UTF-8" standalone="no"?>
<svg
   xmlns:dc="http://purl.org/dc/elements/1.1/"
   xmlns:cc="http://creativecommons.org/ns#"
   xmlns:rdf="http://www.w3.org/1999/02/22-rdf-syntax-ns#"
   xmlns:svg="http://www.w3.org/2000/svg"
   xmlns="http://www.w3.org/2000/svg"
   xmlns:sodipodi="http://sodipodi.sourceforge.net/DTD/sodipodi-0.dtd"
   xmlns:inkscape="http://www.inkscape.org/namespaces/inkscape"
   width="16"
   height="16"
   viewBox="0 0 16 16"
   version="1.1"
   id="svg835"
   sodipodi:docname="package-16.svg"
   inkscape:version="1.0.1 (c497b03c, 2020-09-10)">
  <metadata
     id="metadata841">
    <rdf:RDF>
      <cc:Work
         rdf:about="">
        <dc:format>image/svg+xml</dc:format>
        <dc:type
           rdf:resource="http://purl.org/dc/dcmitype/StillImage" />
      </cc:Work>
    </rdf:RDF>
  </metadata>
  <defs
     id="defs839" />
  <sodipodi:namedview
     pagecolor="#ffffff"
     bordercolor="#666666"
     borderopacity="1"
     objecttolerance="10"
     gridtolerance="10"
     guidetolerance="10"
     inkscape:pageopacity="0"
     inkscape:pageshadow="2"
     inkscape:window-width="1440"
     inkscape:window-height="900"
     id="namedview837"
     showgrid="false"
     inkscape:zoom="38.625"
     inkscape:cx="8"
     inkscape:cy="8"
     inkscape:window-x="0"
     inkscape:window-y="0"
     inkscape:window-maximized="0"
     inkscape:current-layer="svg835" />
  <path
     fill-rule="evenodd"
     d="M 8.878,0.392 C 8.3350254,0.07707792 7.6649746,0.07707792 7.122,0.392 L 1.872,3.437 C 1.3321802,3.7500923 0.99993169,4.3269549 1,4.951 v 6.098 c 0,0.624 0.332,1.2 0.872,1.514 l 5.25,3.045 c 0.5429746,0.314922 1.2130254,0.314922 1.756,0 l 5.25,-3.045 C 14.668,12.25 15,11.673 15,11.049 V 4.951 C 15,4.327 14.668,3.751 14.128,3.437 Z M 7.875,1.69 c 0.07735,-0.044658 0.1726497,-0.044658 0.25,0 L 12.755,4.375 8,7.133 3.245,4.375 Z M 7.25,8.432 v 5.516 L 2.625,11.265 C 2.547,11.22 2.5,11.139 2.5,11.049 V 5.677 Z m 1.5,0 4.75,-2.755 v 5.372 c -1.81e-4,0.08914 -0.04781,0.171432 -0.125,0.216 L 8.75,13.948 Z"
     id="path833"
     sodipodi:nodetypes="ccccsccccsscccccccccccscccccccc" />
</svg>
