<?xml version="1.0" encoding="UTF-8" standalone="no"?>
<svg
   xmlns:dc="http://purl.org/dc/elements/1.1/"
   xmlns:cc="http://creativecommons.org/ns#"
   xmlns:rdf="http://www.w3.org/1999/02/22-rdf-syntax-ns#"
   xmlns:svg="http://www.w3.org/2000/svg"
   xmlns="http://www.w3.org/2000/svg"
   xmlns:sodipodi="http://sodipodi.sourceforge.net/DTD/sodipodi-0.dtd"
   xmlns:inkscape="http://www.inkscape.org/namespaces/inkscape"
   width="16"
   height="16"
   viewBox="0 0 16 16"
   version="1.1"
   id="svg835"
   sodipodi:docname="package-dependents-16.svg"
   inkscape:version="1.0.1 (c497b03c, 2020-09-10)">
  <metadata
     id="metadata841">
    <rdf:RDF>
      <cc:Work
         rdf:about="">
        <dc:format>image/svg+xml</dc:format>
        <dc:type
           rdf:resource="http://purl.org/dc/dcmitype/StillImage" />
      </cc:Work>
    </rdf:RDF>
  </metadata>
  <defs
     id="defs839" />
  <sodipodi:namedview
     pagecolor="#ffffff"
     bordercolor="#666666"
     borderopacity="1"
     objecttolerance="10"
     gridtolerance="10"
     guidetolerance="10"
     inkscape:pageopacity="0"
     inkscape:pageshadow="2"
     inkscape:window-width="1440"
     inkscape:window-height="900"
     id="namedview837"
     showgrid="false"
     inkscape:zoom="38.625"
     inkscape:cx="8"
     inkscape:cy="8"
     inkscape:window-x="0"
     inkscape:window-y="0"
     inkscape:window-maximized="0"
     inkscape:current-layer="svg835" />
  <path
     fill-rule="evenodd"
     d="m 6.122,0.392 c 0.5429746,-0.31492208 1.2130254,-0.31492208 1.756,0 l 5.25,3.045 C 13.668,3.75 14,4.327 14,4.951 V 7.25 c 0,0.9999996 -1.5,0.9999996 -1.5,0 V 5.677 L 7.75,8.432 v 6.384 c 1.021e-4,0.770887 -0.8352851,1.251985 -1.502,0.865 L 0.872,12.563 C 0.33218019,12.249908 -6.8306764e-5,11.673045 0,11.049 V 4.951 C 0,4.327 0.332,3.751 0.872,3.437 Z M 6.875,1.69 2.245,4.375 7,7.133 11.755,4.375 7.125,1.69 c -0.07735,-0.044658 -0.1726497,-0.044658 -0.25,0 z m -5.25,9.575 4.625,2.683 V 8.432 L 1.5,5.677 v 5.372 c 1.806e-4,0.08914 0.047806,0.171432 0.125,0.216 z m 10.703,3.468 c -0.689333,0.724666 0.397667,1.758666 1.087,1.034 l 2.378,-2.5 c 0.275556,-0.289591 0.275556,-0.744409 0,-1.034 l -2.378,-2.5 c -0.689333,-0.7246664 -1.776333,0.309334 -1.087,1.034 L 13.501,12 H 10.25 c -0.9999996,0 -0.9999996,1.5 0,1.5 h 3.251 z"
     id="path833"
     sodipodi:nodetypes="cccsssccccccscccccccccccccccccccccsscc" />
</svg>
