<?xml version="1.0" encoding="UTF-8" standalone="no"?>
<svg
   xmlns:dc="http://purl.org/dc/elements/1.1/"
   xmlns:cc="http://creativecommons.org/ns#"
   xmlns:rdf="http://www.w3.org/1999/02/22-rdf-syntax-ns#"
   xmlns:svg="http://www.w3.org/2000/svg"
   xmlns="http://www.w3.org/2000/svg"
   xmlns:sodipodi="http://sodipodi.sourceforge.net/DTD/sodipodi-0.dtd"
   xmlns:inkscape="http://www.inkscape.org/namespaces/inkscape"
   width="24"
   height="24"
   viewBox="0 0 24 24"
   version="1.1"
   id="svg837"
   sodipodi:docname="repo-24.svg"
   inkscape:version="1.0.1 (c497b03c, 2020-09-10)">
  <metadata
     id="metadata843">
    <rdf:RDF>
      <cc:Work
         rdf:about="">
        <dc:format>image/svg+xml</dc:format>
        <dc:type
           rdf:resource="http://purl.org/dc/dcmitype/StillImage" />
      </cc:Work>
    </rdf:RDF>
  </metadata>
  <defs
     id="defs841" />
  <sodipodi:namedview
     pagecolor="#ffffff"
     bordercolor="#666666"
     borderopacity="1"
     objecttolerance="10"
     gridtolerance="10"
     guidetolerance="10"
     inkscape:pageopacity="0"
     inkscape:pageshadow="2"
     inkscape:window-width="1440"
     inkscape:window-height="900"
     id="namedview839"
     showgrid="false"
     inkscape:zoom="25.75"
     inkscape:cx="12"
     inkscape:cy="12"
     inkscape:window-x="0"
     inkscape:window-y="0"
     inkscape:window-maximized="0"
     inkscape:current-layer="svg837" />
  <path
     fill-rule="evenodd"
     d="M 3,2.75 C 3,1.2312169 4.2312169,0 5.75,0 h 14.5 C 20.664214,0 21,0.33578644 21,0.75 v 20.5 C 21,21.664214 20.664214,22 20.25,22 h -6 c -1,0 -1,-1.5 0,-1.5 h 5.25 v -4 H 6 c -0.8284271,0 -1.5,0.671573 -1.5,1.5 v 0.75 c 0,0.716 0.43,1.334 1.05,1.605 0.8763518,0.415198 0.3001988,1.734588 -0.6,1.374 C 3.7655047,21.212044 2.9998704,20.04239 3,18.75 Z M 5.75,1.5 C 5.06,1.5 4.5,2.06 4.5,2.75 V 15.401 C 4.941,15.146 5.454,15 6,15 H 19.5 V 1.5 Z"
     id="path833"
     sodipodi:nodetypes="ssssssssccssscccssscsccs" />
  <path
     d="M7 18.25a.25.25 0 01.25-.25h5a.25.25 0 01.25.25v5.01a.25.25 0 01-.397.201l-2.206-1.604a.25.25 0 00-.294 0L7.397 23.46a.25.25 0 01-.397-.2v-5.01z"
     id="path835" />
</svg>
