<?xml version="1.0" encoding="UTF-8" standalone="no"?>
<svg
   xmlns:dc="http://purl.org/dc/elements/1.1/"
   xmlns:cc="http://creativecommons.org/ns#"
   xmlns:rdf="http://www.w3.org/1999/02/22-rdf-syntax-ns#"
   xmlns:svg="http://www.w3.org/2000/svg"
   xmlns="http://www.w3.org/2000/svg"
   xmlns:sodipodi="http://sodipodi.sourceforge.net/DTD/sodipodi-0.dtd"
   xmlns:inkscape="http://www.inkscape.org/namespaces/inkscape"
   width="24"
   height="24"
   viewBox="0 0 24 24"
   version="1.1"
   id="svg25418"
   sodipodi:docname="rocket-24.svg"
   inkscape:version="1.0.1 (c497b03c, 2020-09-10)">
  <metadata
     id="metadata25424">
    <rdf:RDF>
      <cc:Work
         rdf:about="">
        <dc:format>image/svg+xml</dc:format>
        <dc:type
           rdf:resource="http://purl.org/dc/dcmitype/StillImage" />
      </cc:Work>
    </rdf:RDF>
  </metadata>
  <defs
     id="defs25422" />
  <sodipodi:namedview
     pagecolor="#ffffff"
     bordercolor="#666666"
     borderopacity="1"
     objecttolerance="10"
     gridtolerance="10"
     guidetolerance="10"
     inkscape:pageopacity="0"
     inkscape:pageshadow="2"
     inkscape:window-width="689"
     inkscape:window-height="480"
     id="namedview25420"
     showgrid="false"
     inkscape:zoom="25.875"
     inkscape:cx="15.748792"
     inkscape:cy="4.6956522"
     inkscape:window-x="0"
     inkscape:window-y="23"
     inkscape:window-maximized="0"
     inkscape:current-layer="svg25418" />
  <path
     fill-rule="evenodd"
     d="m 20.322,0.75 c -2.740807,-2.3523e-4 -5.378202,1.0464237 -7.373,2.926 l -1.304,1.23 C 11.106452,5.4130242 10.59189,5.9449377 10.103,6.5 H 5.066 c -0.6145658,2.926e-4 -1.1839376,0.3229367 -1.5,0.85 l -2.71,4.514 c -0.26543237,0.442491 -0.0151231,1.014627 0.49,1.12 l 4.571,0.963 c 0.039,0.049 0.082,0.096 0.129,0.14 l 1.994,1.873 1.872,1.994 c 0.044,0.047 0.091,0.09 0.14,0.129 l 0.963,4.572 c 0.106475,0.504297 0.678162,0.753389 1.12,0.488 l 4.514,-2.709 c 0.527063,-0.316062 0.849707,-0.885434 0.85,-1.5 v -5.038 c 0.555746,-0.488841 1.088327,-1.003403 1.596,-1.542 L 20.323,11.05 C 22.202449,9.0547955 23.248761,6.4170158 23.248,3.676 V 2.499 C 23.247448,1.5328922 22.464108,0.74999984 21.498,0.75 H 20.321 Z M 16,18.934 c -5.2e-5,0.08761 -0.04596,0.168795 -0.121,0.214 l -3.612,2.167 -0.678,-3.223 3.393,-2.262 C 15.328,15.599 15.667,15.36 16,15.112 Z M 2.685,11.733 4.852,8.121 C 4.8972051,8.0459569 4.9783931,8.0000516 5.066,8 H 8.887 C 8.64,8.332 8.4,8.671 8.17,9.017 L 5.908,12.412 Z M 13.978,4.768 C 15.694358,3.150638 17.963665,2.2499265 20.322,2.25 h 1.177 c 0.138071,0 0.25,0.1119288 0.25,0.25 v 1.176 c 8.54e-4,2.358889 -0.899529,4.6289839 -2.517,6.346 l -1.228,1.303 c -1.156995,1.228309 -2.449975,2.321001 -3.854,3.257 l -3.288,2.192 -1.743,-1.858 c -0.010974,-0.01169 -0.022313,-0.02303 -0.034,-0.034 L 7.226,13.138 9.419,9.848 c 0.935557,-1.4028697 2.027569,-2.694832 3.255,-3.851 l 1.304,-1.23 z M 14.5,8 c 0,1.9999991 3,1.9999991 3,0 0,-1.9999991 -3,-1.9999991 -3,0 z m -8,13 c 0.9,-0.9 0.9,-2.6 0,-3.5 -0.9,-0.9 -2.6,-0.9 -3.5,0 -1.209,1.209 -1.445,3.901 -1.49,4.743 -0.00939,0.140121 0.1068786,0.256394 0.247,0.247 C 2.599,22.445 5.291,22.209 6.5,21 Z"
     id="path25416"
     sodipodi:nodetypes="ccccccccccccccccccccccsccccccccccccccccccssccccccccccccssssssccs" />
</svg>
