<?xml version="1.0" encoding="UTF-8" standalone="no"?>
<svg
   xmlns:dc="http://purl.org/dc/elements/1.1/"
   xmlns:cc="http://creativecommons.org/ns#"
   xmlns:rdf="http://www.w3.org/1999/02/22-rdf-syntax-ns#"
   xmlns:svg="http://www.w3.org/2000/svg"
   xmlns="http://www.w3.org/2000/svg"
   xmlns:sodipodi="http://sodipodi.sourceforge.net/DTD/sodipodi-0.dtd"
   xmlns:inkscape="http://www.inkscape.org/namespaces/inkscape"
   width="24"
   height="24"
   viewBox="0 0 24 24"
   version="1.1"
   id="svg835"
   sodipodi:docname="search-24.svg"
   inkscape:version="1.0.1 (c497b03c, 2020-09-10)">
  <metadata
     id="metadata841">
    <rdf:RDF>
      <cc:Work
         rdf:about="">
        <dc:format>image/svg+xml</dc:format>
        <dc:type
           rdf:resource="http://purl.org/dc/dcmitype/StillImage" />
      </cc:Work>
    </rdf:RDF>
  </metadata>
  <defs
     id="defs839" />
  <sodipodi:namedview
     pagecolor="#ffffff"
     bordercolor="#666666"
     borderopacity="1"
     objecttolerance="10"
     gridtolerance="10"
     guidetolerance="10"
     inkscape:pageopacity="0"
     inkscape:pageshadow="2"
     inkscape:window-width="1440"
     inkscape:window-height="900"
     id="namedview837"
     showgrid="false"
     inkscape:zoom="25.916667"
     inkscape:cx="12.347267"
     inkscape:cy="12.347267"
     inkscape:window-x="0"
     inkscape:window-y="0"
     inkscape:window-maximized="0"
     inkscape:current-layer="svg835" />
  <path
     d="M 14.53,15.59 C 11.140876,18.412444 6.1310075,18.069865 3.1587649,14.813708 0.18663843,11.557679 0.30431574,6.5409886 3.4226522,3.4226522 6.5409886,0.30431574 11.557679,0.18663843 14.813708,3.1587649 18.069865,6.1310075 18.412444,11.140876 15.59,14.53 l 5.69,5.69 c 0.757891,0.70621 -0.35379,1.817891 -1.06,1.06 z m -0.733,-1.351 c 0.07575,-0.205142 0.237688,-0.366718 0.443,-0.442 C 17.434156,10.290561 16.110835,4.6701127 11.687855,2.9570556 7.2648756,1.2439986 2.50099,4.5068209 2.5,9.25 c -2.464e-4,5.864241 6.9629204,8.939327 11.297,4.989 z"
     id="path833"
     sodipodi:nodetypes="csssccccccscc" />
</svg>
