<?xml version="1.0" encoding="UTF-8" standalone="no"?>
<svg
   xmlns:dc="http://purl.org/dc/elements/1.1/"
   xmlns:cc="http://creativecommons.org/ns#"
   xmlns:rdf="http://www.w3.org/1999/02/22-rdf-syntax-ns#"
   xmlns:svg="http://www.w3.org/2000/svg"
   xmlns="http://www.w3.org/2000/svg"
   xmlns:sodipodi="http://sodipodi.sourceforge.net/DTD/sodipodi-0.dtd"
   xmlns:inkscape="http://www.inkscape.org/namespaces/inkscape"
   width="24"
   height="24"
   viewBox="0 0 24 24"
   version="1.1"
   id="svg29421"
   sodipodi:docname="shield-24.svg"
   inkscape:version="1.0.1 (c497b03c, 2020-09-10)">
  <metadata
     id="metadata29427">
    <rdf:RDF>
      <cc:Work
         rdf:about="">
        <dc:format>image/svg+xml</dc:format>
        <dc:type
           rdf:resource="http://purl.org/dc/dcmitype/StillImage" />
      </cc:Work>
    </rdf:RDF>
  </metadata>
  <defs
     id="defs29425" />
  <sodipodi:namedview
     pagecolor="#ffffff"
     bordercolor="#666666"
     borderopacity="1"
     objecttolerance="10"
     gridtolerance="10"
     guidetolerance="10"
     inkscape:pageopacity="0"
     inkscape:pageshadow="2"
     inkscape:window-width="689"
     inkscape:window-height="480"
     id="namedview29423"
     showgrid="false"
     inkscape:zoom="25.875"
     inkscape:cx="12.154589"
     inkscape:cy="8.9468599"
     inkscape:window-x="0"
     inkscape:window-y="23"
     inkscape:window-maximized="0"
     inkscape:current-layer="svg29421" />
  <path
     d="m 13,15.5 c 0,1.333333 -2,1.333333 -2,0 0,-1.333333 2,-1.333333 2,0 z m -0.25,-3.75 c 0,1 -1.5,1 -1.5,0 v -4.5 c 0,-0.9999996 1.5,-0.9999996 1.5,0 z"
     id="path29417"
     sodipodi:nodetypes="ssssssss" />
  <path
     fill-rule="evenodd"
     d="M11.46.637a1.75 1.75 0 011.08 0l8.25 2.675A1.75 1.75 0 0122 4.976V10c0 6.19-3.77 10.705-9.401 12.83a1.699 1.699 0 01-1.198 0C5.771 20.704 2 16.19 2 10V4.976c0-.76.49-1.43 1.21-1.664L11.46.637zm.617 1.426a.25.25 0 00-.154 0L3.673 4.74a.249.249 0 00-.173.237V10c0 5.461 3.28 9.483 8.43 11.426a.2.2 0 00.14 0C17.22 19.483 20.5 15.46 20.5 10V4.976a.25.25 0 00-.173-.237l-8.25-2.676z"
     id="path29419" />
</svg>
