<?xml version="1.0" encoding="UTF-8" standalone="no"?>
<svg
   xmlns:dc="http://purl.org/dc/elements/1.1/"
   xmlns:cc="http://creativecommons.org/ns#"
   xmlns:rdf="http://www.w3.org/1999/02/22-rdf-syntax-ns#"
   xmlns:svg="http://www.w3.org/2000/svg"
   xmlns="http://www.w3.org/2000/svg"
   xmlns:sodipodi="http://sodipodi.sourceforge.net/DTD/sodipodi-0.dtd"
   xmlns:inkscape="http://www.inkscape.org/namespaces/inkscape"
   width="16"
   height="16"
   viewBox="0 0 16 16"
   version="1.1"
   id="svg835"
   sodipodi:docname="tag-16.svg"
   inkscape:version="1.0.1 (c497b03c, 2020-09-10)">
  <metadata
     id="metadata841">
    <rdf:RDF>
      <cc:Work
         rdf:about="">
        <dc:format>image/svg+xml</dc:format>
        <dc:type
           rdf:resource="http://purl.org/dc/dcmitype/StillImage" />
      </cc:Work>
    </rdf:RDF>
  </metadata>
  <defs
     id="defs839" />
  <sodipodi:namedview
     pagecolor="#ffffff"
     bordercolor="#666666"
     borderopacity="1"
     objecttolerance="10"
     gridtolerance="10"
     guidetolerance="10"
     inkscape:pageopacity="0"
     inkscape:pageshadow="2"
     inkscape:window-width="1440"
     inkscape:window-height="900"
     id="namedview837"
     showgrid="false"
     inkscape:zoom="38.625"
     inkscape:cx="8"
     inkscape:cy="8"
     inkscape:window-x="0"
     inkscape:window-y="0"
     inkscape:window-maximized="0"
     inkscape:current-layer="svg835" />
  <path
     fill-rule="evenodd"
     d="m 2.573,7.952 6.25,6.25 c 0.097682,0.09793 0.2563181,0.09793 0.354,0 l 5.025,-5.025 c 0.09793,-0.097682 0.09793,-0.2563181 0,-0.354 L 7.952,2.573 C 7.9050246,2.526143 7.8413494,2.4998815 7.775,2.5 H 2.75 C 2.6119288,2.5 2.5,2.6119288 2.5,2.75 v 5.025 c -1.185e-4,0.066349 0.026143,0.1300246 0.073,0.177 z M 1,7.775 V 2.75 C 1,1.784 1.784,1 2.75,1 h 5.025 c 0.464,0 0.91,0.184 1.238,0.513 l 6.25,6.25 c 0.682835,0.6833175 0.682835,1.7906825 0,2.474 l -5.026,5.026 c -0.6833175,0.682835 -1.7906825,0.682835 -2.474,0 L 1.513,9.013 C 1.1845131,8.6847449 0.99996645,8.2393867 1,7.775 Z M 6,7 C 4.6666672,7 4.6666672,5 6,5 7.3333328,5 7.3333328,7 6,7 Z"
     id="path833"
     sodipodi:nodetypes="cccccccsscccssscccccccsss" />
</svg>
