<?xml version="1.0" encoding="UTF-8" standalone="no"?>
<svg
   xmlns:dc="http://purl.org/dc/elements/1.1/"
   xmlns:cc="http://creativecommons.org/ns#"
   xmlns:rdf="http://www.w3.org/1999/02/22-rdf-syntax-ns#"
   xmlns:svg="http://www.w3.org/2000/svg"
   xmlns="http://www.w3.org/2000/svg"
   xmlns:sodipodi="http://sodipodi.sourceforge.net/DTD/sodipodi-0.dtd"
   xmlns:inkscape="http://www.inkscape.org/namespaces/inkscape"
   width="24"
   height="24"
   viewBox="0 0 24 24"
   version="1.1"
   id="svg837"
   sodipodi:docname="telescope-24.svg"
   inkscape:version="1.0.1 (c497b03c, 2020-09-10)">
  <metadata
     id="metadata843">
    <rdf:RDF>
      <cc:Work
         rdf:about="">
        <dc:format>image/svg+xml</dc:format>
        <dc:type
           rdf:resource="http://purl.org/dc/dcmitype/StillImage" />
      </cc:Work>
    </rdf:RDF>
  </metadata>
  <defs
     id="defs841" />
  <sodipodi:namedview
     pagecolor="#ffffff"
     bordercolor="#666666"
     borderopacity="1"
     objecttolerance="10"
     gridtolerance="10"
     guidetolerance="10"
     inkscape:pageopacity="0"
     inkscape:pageshadow="2"
     inkscape:window-width="1440"
     inkscape:window-height="900"
     id="namedview839"
     showgrid="false"
     inkscape:zoom="25.75"
     inkscape:cx="12"
     inkscape:cy="12"
     inkscape:window-x="0"
     inkscape:window-y="0"
     inkscape:window-maximized="0"
     inkscape:current-layer="svg837" />
  <path
     fill-rule="evenodd"
     d="M 0.408,15.13 C -0.11178366,14.229824 0.14464771,13.081533 0.998,12.488 L 17.038,1.33 c 0.946045,-0.65777172 2.25078,-0.38217498 2.85,0.602 l 2.828,4.644 c 0.617072,1.0135433 0.22107,2.3383602 -0.851,2.847 l -17.762,8.43 c -0.9417146,0.447103 -2.068919,0.09588 -2.59,-0.807 z m 7.25,-0.626 8.712,-4.135 -2.857,-4.76 -7.842,5.455 z M 4.436,11.924 1.854,13.72 c -0.2128793,0.148498 -0.2767342,0.435193 -0.147,0.66 l 1.105,1.915 c 0.1305464,0.225716 0.4126326,0.313215 0.648,0.201 L 6.298,15.149 Z M 17.732,9.723 21.222,8.067 C 21.4899,7.9395587 21.588555,7.6082286 21.434,7.355 L 18.608,2.711 C 18.458361,2.464455 18.131737,2.3952822 17.895,2.56 l -3.148,2.19 2.984,4.974 z"
     id="path833"
     sodipodi:nodetypes="ccccccccccccccccccccccccccccc" />
  <path
     d="M17.155 22.87a.75.75 0 00.226-1.036l-4-6.239a.75.75 0 00-.941-.278l-2.75 1.25a.75.75 0 00-.318.274l-3.25 4.989a.75.75 0 001.256.819l3.131-4.806.51-.232v5.64a.75.75 0 101.5 0v-6.22l3.6 5.613a.75.75 0 001.036.226z"
     id="path835" />
</svg>
