<?xml version="1.0" encoding="UTF-8" standalone="no"?>
<svg
   xmlns:dc="http://purl.org/dc/elements/1.1/"
   xmlns:cc="http://creativecommons.org/ns#"
   xmlns:rdf="http://www.w3.org/1999/02/22-rdf-syntax-ns#"
   xmlns:svg="http://www.w3.org/2000/svg"
   xmlns="http://www.w3.org/2000/svg"
   xmlns:sodipodi="http://sodipodi.sourceforge.net/DTD/sodipodi-0.dtd"
   xmlns:inkscape="http://www.inkscape.org/namespaces/inkscape"
   width="24"
   height="24"
   viewBox="0 0 24 24"
   version="1.1"
   id="svg837"
   sodipodi:docname="terminal-24.svg"
   inkscape:version="1.0.1 (c497b03c, 2020-09-10)">
  <metadata
     id="metadata843">
    <rdf:RDF>
      <cc:Work
         rdf:about="">
        <dc:format>image/svg+xml</dc:format>
        <dc:type
           rdf:resource="http://purl.org/dc/dcmitype/StillImage" />
      </cc:Work>
    </rdf:RDF>
  </metadata>
  <defs
     id="defs841" />
  <sodipodi:namedview
     pagecolor="#ffffff"
     bordercolor="#666666"
     borderopacity="1"
     objecttolerance="10"
     gridtolerance="10"
     guidetolerance="10"
     inkscape:pageopacity="0"
     inkscape:pageshadow="2"
     inkscape:window-width="1440"
     inkscape:window-height="900"
     id="namedview839"
     showgrid="false"
     inkscape:zoom="25.75"
     inkscape:cx="12"
     inkscape:cy="12"
     inkscape:window-x="0"
     inkscape:window-y="0"
     inkscape:window-maximized="0"
     inkscape:current-layer="svg837" />
  <path
     d="m 9.25,12 c -1.751e-4,0.198845 -0.079308,0.389483 -0.22,0.53 L 6.28,15.28 C 5.5737584,15.938083 4.5619172,14.926242 5.22,14.22 L 7.44,12 5.22,9.78 C 4.4621088,9.0737896 5.5737896,7.9621088 6.28,8.72 l 2.75,2.75 c 0.141,0.14 0.22,0.331 0.22,0.53 z m 7,2 c 1,0 1,1.5 0,1.5 h -5 c -1,0 -1,-1.5 0,-1.5 z"
     id="path833"
     sodipodi:nodetypes="cccccccccsssss" />
  <path
     fill-rule="evenodd"
     d="M0 4.75C0 3.784.784 3 1.75 3h20.5c.966 0 1.75.784 1.75 1.75v14.5A1.75 1.75 0 0122.25 21H1.75A1.75 1.75 0 010 19.25V4.75zm1.75-.25a.25.25 0 00-.25.25v14.5c0 .138.112.25.25.25h20.5a.25.25 0 00.25-.25V4.75a.25.25 0 00-.25-.25H1.75z"
     id="path835" />
</svg>
