<?xml version="1.0" encoding="UTF-8" standalone="no"?>
<svg
   xmlns:dc="http://purl.org/dc/elements/1.1/"
   xmlns:cc="http://creativecommons.org/ns#"
   xmlns:rdf="http://www.w3.org/1999/02/22-rdf-syntax-ns#"
   xmlns:svg="http://www.w3.org/2000/svg"
   xmlns="http://www.w3.org/2000/svg"
   xmlns:sodipodi="http://sodipodi.sourceforge.net/DTD/sodipodi-0.dtd"
   xmlns:inkscape="http://www.inkscape.org/namespaces/inkscape"
   width="24"
   height="24"
   viewBox="0 0 24 24"
   version="1.1"
   id="svg32853"
   sodipodi:docname="unverified-24.svg"
   inkscape:version="1.0.1 (c497b03c, 2020-09-10)">
  <metadata
     id="metadata32859">
    <rdf:RDF>
      <cc:Work
         rdf:about="">
        <dc:format>image/svg+xml</dc:format>
        <dc:type
           rdf:resource="http://purl.org/dc/dcmitype/StillImage" />
      </cc:Work>
    </rdf:RDF>
  </metadata>
  <defs
     id="defs32857" />
  <sodipodi:namedview
     pagecolor="#ffffff"
     bordercolor="#666666"
     borderopacity="1"
     objecttolerance="10"
     gridtolerance="10"
     guidetolerance="10"
     inkscape:pageopacity="0"
     inkscape:pageshadow="2"
     inkscape:window-width="852"
     inkscape:window-height="480"
     id="namedview32855"
     showgrid="false"
     inkscape:zoom="25.875"
     inkscape:cx="12.57971"
     inkscape:cy="12.966184"
     inkscape:window-x="0"
     inkscape:window-y="23"
     inkscape:window-maximized="0"
     inkscape:current-layer="svg32853" />
  <path
     d="m 13,16.5 c 0,1.333333 -2,1.333333 -2,0 0,-1.333333 2,-1.333333 2,0 z M 9.142,8.165 C 9.3680766,7.7016338 9.7118766,7.3057638 10.139,7.017 10.627,6.691 11.244,6.5 12,6.5 c 0.658,0 1.37,0.195 1.934,0.619 0.638728,0.4674023 1.012315,1.214576 1.003,2.006 0,1.083 -0.562,1.783 -1.098,2.283 -0.162,0.152 -0.354,0.312 -0.52,0.452 -0.082,0.068 -0.159,0.132 -0.222,0.187 -0.144,0.125 -0.257,0.233 -0.347,0.333 v 1.12 c 0,1 -1.5,1 -1.5,0 v -1.601 l 0.126,-0.19 c 0.214,-0.321 0.492,-0.582 0.738,-0.795 0.09719,-0.08395 0.195195,-0.166955 0.294,-0.249 0.139739,-0.114006 0.276131,-0.232056 0.409,-0.354 0.402,-0.376 0.62,-0.706 0.62,-1.186 C 13.446198,8.8057807 13.294894,8.5031734 13.034,8.319 12.766,8.118 12.384,8 12,8 11.506,8 11.186,8.12 10.971,8.265 10.751,8.411 10.595,8.612 10.483,8.835 10.021311,9.6826265 8.741436,9.043166 9.142,8.165 Z"
     id="path32849"
     sodipodi:nodetypes="sssccsccccccsscccccccsccc" />
  <path
     fill-rule="evenodd"
     d="M9.864 1.2a3.61 3.61 0 014.272 0l1.375 1.01c.274.2.593.333.929.384l1.686.259a3.61 3.61 0 013.021 3.02l.259 1.687c.051.336.183.655.384.929l1.01 1.375a3.61 3.61 0 010 4.272l-1.01 1.375a2.11 2.11 0 00-.384.929l-.259 1.686a3.61 3.61 0 01-3.02 3.021l-1.687.259a2.11 2.11 0 00-.929.384l-1.375 1.01a3.61 3.61 0 01-4.272 0l-1.375-1.01a2.11 2.11 0 00-.929-.384l-1.686-.259a3.61 3.61 0 01-3.021-3.02l-.259-1.687a2.11 2.11 0 00-.384-.929L1.2 14.136a3.61 3.61 0 010-4.272l1.01-1.375a2.11 2.11 0 00.384-.929l.259-1.686a3.61 3.61 0 013.02-3.021l1.687-.259a2.11 2.11 0 00.929-.384L9.864 1.2zm3.384 1.209a2.11 2.11 0 00-2.496 0l-1.376 1.01a3.61 3.61 0 01-1.589.658l-1.686.258a2.11 2.11 0 00-1.766 1.766l-.258 1.686a3.61 3.61 0 01-.658 1.59l-1.01 1.375a2.11 2.11 0 000 2.496l1.01 1.376a3.61 3.61 0 01.658 1.589l.258 1.686a2.11 2.11 0 001.766 1.765l1.686.26a3.61 3.61 0 011.59.657l1.375 1.01a2.11 2.11 0 002.496 0l1.376-1.01a3.61 3.61 0 011.589-.658l1.686-.258a2.11 2.11 0 001.765-1.766l.26-1.686a3.61 3.61 0 01.657-1.59l1.01-1.375a2.11 2.11 0 000-2.496l-1.01-1.376a3.61 3.61 0 01-.658-1.589l-.258-1.686a2.11 2.11 0 00-1.766-1.766l-1.686-.258a3.61 3.61 0 01-1.59-.658l-1.375-1.01z"
     id="path32851" />
</svg>
